<svg xmlns="http://www.w3.org/2000/svg" viewBox="0 0 20.414 16.58" class="text-gray-400 hover:text-[#1da1f2]"><defs></defs> <path fill="currentColor" d="M18.315 4.132c.013.181.013.363.013.544a11.822 11.822 0 01-11.9 11.9A11.823 11.823 0 010 14.701a8.655 8.655 0 001.01.052 8.379 8.379 0 005.19-1.787 4.191 4.191 0 01-3.912-2.9 5.276 5.276 0 00.79.065 4.425 4.425 0 001.1-.142A4.184 4.184 0 01.829 5.88v-.051a4.213 4.213 0 001.891.531 4.19 4.19 0 01-1.3-5.6 11.892 11.892 0 008.627 4.378 4.723 4.723 0 01-.1-.958 4.188 4.188 0 017.241-2.861 8.237 8.237 0 002.655-1.01A4.172 4.172 0 0118 2.619a8.387 8.387 0 002.409-.648 8.993 8.993 0 01-2.1 2.163z" data-name="Icon awesome-twitter"></path></svg>