<svg xmlns="http://www.w3.org/2000/svg" data-name="Group 6322" viewBox="0 0 46.71 68.35" class="h-8 w-8 xl:h-12 xl:w-12 2xl:h-16 2xl:w-16" data-v-38162434=""><path fill="#0c0b52" d="M38.73 56.96H2.28V11.4h36.45v10.26h2.28V5.7a5.7 5.7 0 0 0-5.7-5.7H5.7A5.7 5.7 0 0 0 0 5.7v56.96a5.7 5.7 0 0 0 5.7 5.7h29.62a5.7 5.7 0 0 0 5.7-5.7V46.7h-2.29ZM2.28 5.7A3.42 3.42 0 0 1 5.7 2.28h29.62a3.42 3.42 0 0 1 3.41 3.42v3.41H2.28Zm36.45 56.96a3.42 3.42 0 0 1-3.41 3.42H5.7a3.42 3.42 0 0 1-3.42-3.42v-3.42h36.45Zm0 0" data-name="Path 423" data-v-38162434=""></path> <path fill="#0c0b52" d="M4.56 4.56h2.27v2.27H4.56Zm0 0" data-name="Path 424" data-v-38162434=""></path> <path fill="#0c0b52" d="M9.11 4.56h6.84v2.27H9.1Zm0 0" data-name="Path 425" data-v-38162434=""></path> <path fill="#0c0b52" d="M18.23 61.52h4.56v2.28h-4.56Zm0 0" data-name="Path 426" data-v-38162434=""></path> <path fill="#0c0b52" d="M45.63 24.97a2.26 2.26 0 0 0-2.22-.1l-8.1 4.05V26.2a2.28 2.28 0 0 0-2.27-2.28H10.25a2.28 2.28 0 0 0-2.27 2.28v15.95a2.28 2.28 0 0 0 2.27 2.28h22.79a2.28 2.28 0 0 0 2.28-2.28v-2.71l8.09 4.05a2.28 2.28 0 0 0 3.3-2.04V26.91a2.26 2.26 0 0 0-1.09-1.94ZM10.25 42.15V26.2h22.79v15.95Zm25.07-5.26v-5.43l9.11-4.55v14.54Zm0 0" data-name="Path 427" data-v-38162434=""></path></svg>