<svg xmlns="http://www.w3.org/2000/svg" width="25" height="25" data-v-896c7642=""><g data-name="Group 24119" data-v-896c7642=""><path data-name="Rectangle 24542" fill="#fff" d="M0 0h25v25H0z" data-v-896c7642=""></path> <g data-name="healthcare (1)" data-v-896c7642=""><g data-name="Group 24109" data-v-896c7642=""><path data-name="Path 25291" d="M12.586 22.577c.295.241.442.373.59.378s.295-.137.59-.378l7.774-7.96a6.666 6.666 0 0 0 0-8.948c-2.089-2.236-5.52-1.739-7.7.4l-.409.4c-.237.233-.282.233-.525-.006l-.4-.4c-2.172-2.143-5.607-2.638-7.7-.4a6.666 6.666 0 0 0 0 8.948l.932.956Z" fill="#fd8087" fill-rule="evenodd" data-v-896c7642=""></path></g> <g data-name="Group 24110" data-v-896c7642=""><path data-name="Path 25292" d="M14.801 5.287a9.858 9.858 0 0 1 1.768 5.619c0 .226-.008.449-.024.669a9.875 9.875 0 0 1-1.78 5 10.719 10.719 0 0 1-1.557 1.773 11.2 11.2 0 0 1-2.082 1.5q-.389.218-.8.409l2.261 2.315c.295.241.442.373.59.378s.295-.137.59-.378l2.378-2.436 5.4-5.524a6.688 6.688 0 0 0 1.144-7.221 6.314 6.314 0 0 0-1.144-1.728 4.643 4.643 0 0 0-1.035-.833 4.953 4.953 0 0 0-3.994-.373 6.427 6.427 0 0 0-1.715.83Z" fill="#fe636e" fill-rule="evenodd" data-v-896c7642=""></path></g> <g data-name="Group 24111" data-v-896c7642=""><path data-name="Path 25293" d="M15.464 13.755a.37.37 0 0 1-.318-.192l-1.913-3.487-1.424 2.49a.37.37 0 0 1-.634.013l-.885-1.406-.668 1.109a.37.37 0 0 1-.317.179H6.993a.37.37 0 0 1 0-.74h2.1l.87-1.445a.37.37 0 0 1 .313-.179.37.37 0 0 1 .313.173l.876 1.393 1.446-2.528a.37.37 0 0 1 .321-.186.37.37 0 0 1 .321.192l1.919 3.5.968-1.626a.37.37 0 0 1 .318-.181h3.084a.37.37 0 0 1 0 .74h-2.873l-1.192 2a.37.37 0 0 1-.313.181Z" fill="#f8f2f0" data-v-896c7642=""></path></g> <g data-name="Group 24112" data-v-896c7642=""><path data-name="Path 25294" d="M20.504 8.038a4.019 4.019 0 1 0-4.018-4.02 4.025 4.025 0 0 0 4.018 4.02Z" fill="#f8f2f0" fill-rule="evenodd" data-v-896c7642=""></path></g> <g data-name="Group 24113" data-v-896c7642=""><path data-name="Path 25295" d="M19.064.265a4.019 4.019 0 0 1 2.4 3.678v.075a3.98 3.98 0 0 1-.251 1.328 4.028 4.028 0 0 1-2.325 2.35 4.018 4.018 0 1 0 .181-7.431Z" fill="#d6dcea" fill-rule="evenodd" data-v-896c7642=""></path></g> <path data-name="Path 25296" d="M21.965 3.648h-1.09V2.556a.37.37 0 1 0-.74 0v1.092h-1.091a.37.37 0 0 0 0 .74h1.091V5.48a.37.37 0 1 0 .74 0V4.389h1.091a.37.37 0 0 0 0-.74Z" fill="#fd8087" data-v-896c7642=""></path> <g data-name="Group 24114" data-v-896c7642=""><path data-name="Path 25297" d="m3.427 16.467-.824 2.673.824 2.833 3.795 1.033 3.078.837c1.8.559 2.589.24 4.24-.291l6.053-1.942c1.738-.557 1.478-2.948-1.065-2.131l-3.384.662-.553.109a3.66 3.66 0 0 1-1.762.1l-2.7-.494-.491-.09a.861.861 0 0 1 .291-1.692c.655.083 1.532.2 2.282.279h.045c1.449.147 2.03-.936 1.512-1.777a1.9 1.9 0 0 0-1.082-.775l-2.038-.374c-1.322-.243-2.261.059-4.312.4l-1.16.191Z" fill="#fed1a3" fill-rule="evenodd" data-v-896c7642=""></path></g> <g data-name="Group 24115" data-v-896c7642=""><path data-name="Path 25298" d="M0 15.988v6.514a.174.174 0 0 0 .19.148h3.045a.174.174 0 0 0 .192-.148v-6.514a.174.174 0 0 0-.192-.148H.19a.174.174 0 0 0-.19.148Z" fill="#99e6fc" fill-rule="evenodd" data-v-896c7642=""></path></g> <g data-name="Group 24116" data-v-896c7642=""><path data-name="Path 25299" d="M0 21.502v1a.174.174 0 0 0 .19.148h3.045a.174.174 0 0 0 .192-.148v-1a.175.175 0 0 1-.192.148H.19a.175.175 0 0 1-.19-.148Z" fill="#62dbfb" fill-rule="evenodd" data-v-896c7642=""></path></g> <g data-name="Group 24117" data-v-896c7642=""><path data-name="Path 25300" d="M3.426 21.502v.471l3.795 1.033 3.078.837c1.8.559 2.589.24 4.24-.291l6.053-1.942c.98-.313 1.325-1.211.983-1.788a1.618 1.618 0 0 1-.983.788l-6.053 1.942c-1.652.529-2.445.85-4.24.291l-3.078-.837-3.795-1.035Z" fill="#ffbc85" fill-rule="evenodd" data-v-896c7642=""></path></g> <g data-name="Group 24118" data-v-896c7642=""><path data-name="Path 25301" d="M10.924 17.07a.857.857 0 0 0-.791 1.349.787.787 0 0 1 .791-.349c.655.083 1.532.2 2.282.279h.045c1.381.14 1.974-.836 1.579-1.656a1.161 1.161 0 0 1-.542.508 1.94 1.94 0 0 1-1.037.147h-.045c-.751-.076-1.627-.195-2.282-.278Z" fill="#ffbc85" fill-rule="evenodd" data-v-896c7642=""></path></g></g></g></svg>