<svg data-v-b8a246a6="" xmlns="http://www.w3.org/2000/svg" viewBox="0 0 17.826 17.826" class="h-6 w-6 text-gray-800"><defs data-v-b8a246a6=""></defs> <g data-v-b8a246a6="" data-name="Group 14125"><g data-v-b8a246a6="" data-name="Group 14124"><path data-v-b8a246a6="" fill="#3b4966" d="M15.215 2.61a8.913 8.913 0 102.612 6.3 8.912 8.912 0 00-2.612-6.3zM13.5 12.415l-.452.449a2.375 2.375 0 01-2.243.642 7.878 7.878 0 01-2.294-1.028 10.537 10.537 0 01-1.809-1.459A10.681 10.681 0 015.35 9.38a8.323 8.323 0 01-1.016-2.056 2.378 2.378 0 01.594-2.428l.529-.529a.378.378 0 01.534 0l1.67 1.67a.376.376 0 010 .533l-.98.98a.8.8 0 00-.084 1.041A11.464 11.464 0 007.772 9.96a11.287 11.287 0 001.545 1.3.8.8 0 001.028-.089l.947-.963a.378.378 0 01.534 0l1.673 1.676a.378.378 0 01.001.532z" data-name="Path 14783"></path></g></g></svg>