<svg data-v-b8a246a6="" xmlns="http://www.w3.org/2000/svg" viewBox="0 0 17.826 12.533" class="h-6 w-6 text-gray-800"><defs data-v-b8a246a6=""></defs> <g data-v-b8a246a6="" data-name="Group 14123"><g data-v-b8a246a6="" data-name="Group 14116"><g data-v-b8a246a6="" data-name="Group 14115"><path data-v-b8a246a6="" fill="#3b4966" d="M17.672.895l-5.405 5.371 5.405 5.371a1.543 1.543 0 00.158-.671v-9.4a1.55 1.55 0 00-.158-.671z" data-name="Path 14779"></path></g></g> <g data-v-b8a246a6="" data-name="Group 14118"><g data-v-b8a246a6="" data-name="Group 14117"><path data-v-b8a246a6="" fill="#3b4966" d="M16.259 0H1.567a1.543 1.543 0 00-.67.158l6.91 6.875a1.568 1.568 0 002.215 0l6.91-6.875A1.544 1.544 0 0016.259 0z" data-name="Path 14780"></path></g></g> <g data-v-b8a246a6="" data-name="Group 14120"><g data-v-b8a246a6="" data-name="Group 14119"><path data-v-b8a246a6="" fill="#3b4966" d="M.156.895A1.549 1.549 0 000 1.567v9.4a1.542 1.542 0 00.156.671l5.407-5.371z" data-name="Path 14781"></path></g></g> <g data-v-b8a246a6="" data-name="Group 14122"><g data-v-b8a246a6="" data-name="Group 14121"><path data-v-b8a246a6="" fill="#3b4966" d="M11.524 7.006l-.765.764a2.614 2.614 0 01-3.692 0l-.765-.764-5.405 5.371a1.563 1.563 0 00.67.156h14.692a1.565 1.565 0 00.672-.156z" data-name="Path 14782"></path></g></g></g></svg>