<svg id="Layer_1" version="1.1" xmlns="http://www.w3.org/2000/svg" x="0" y="0" viewBox="0 0 29.4 26.8" xml:space="preserve" style="enable-background:new 0 0 29.4 26.8;fill:#4285f4;" data-v-896c7642=""><path d="M4.4 0h25v25h-25z" style="fill:#fff;" data-v-896c7642=""></path> <path d="M1.5 16.7h7.4v2.6H1.5z" style="fill:#d3e1f0;" data-v-896c7642=""></path> <path d="M1 18.6h26.5V24H1z" class="st2" data-v-896c7642=""></path> <path d="M11.7 8.3H1.6c-.5 0-1-.4-1-1V2.1c0-.5.4-1 1-1h10.2c.5 0 1 .4 1 1v5.2c-.1.5-.5 1-1.1 1z" style="fill:#ff725c;" data-v-896c7642=""></path> <path d="M9 7.1c-.1 0-.1 0 0 0-.2 0-.3-.1-.3-.3l-.6-3.1-.5 1.4c0 .1-.2.2-.3.2h-.9l-.9.9c-.1.1-.2.2-.3.1S5 6.2 5 6.1l-.5-1.9-.5.9c-.1.1-.2.2-.3.2H2.2c-.1 0-.3-.2-.3-.3s.1-.3.3-.3h1.3l.8-1.4c.1-.1.2-.2.3-.2.1 0 .2.1.3.2l.6 2.1.5-.6c.1-.1.1-.1.2-.1H7l.8-2.2c0-.1.2-.2.3-.2.1 0 .3.1.3.2L9 5.8l.4-.9c.1-.1.2-.2.3-.2H11c.2 0 .3.1.3.3 0 .2-.1.3-.3.3h-1l-.8 1.6c0 .1-.1.2-.2.2z" style="fill:#faf0f1;" data-v-896c7642=""></path> <path d="M26.5 15.7h2.1v11.1h-2.1zM0 11h2.1v15.8H0z" class="st2" data-v-896c7642=""></path> <path d="M5.5 12c.3 0 .5 0 .7.1.2.1.4.2.6.4.2.2.3.4.4.6s.1.5.1.7c0 .3 0 .5-.1.7s-.2.4-.4.6c-.2.2-.4.3-.6.4-.2.1-.5.1-.7.1-.3 0-.5 0-.7-.1s-.4-.2-.6-.4c-.2-.2-.3-.4-.4-.6s-.1-.5-.1-.7c0-.3 0-.5.1-.7s.2-.4.4-.6c.2-.2.4-.3.6-.4s.5-.1.7-.1z" style="fill:#ffc4b0;" data-v-896c7642=""></path> <path d="M26.5 20.9c-3.2 0-2.6-.7-5.8-.7s-3.2.7-6.3.7c-3.2 0-2.2-.7-5.4-.7v-5.5c0-1.3 1-2.3 2.3-2.3h12.9c1.3 0 2.3 1 2.3 2.3v6.2z" style="fill:#e1efff;" data-v-896c7642=""></path></svg>