<svg fill="#0c0b52" xmlns="http://www.w3.org/2000/svg" viewBox="0 0 64.137 61.999" class="h-8 w-8 xl:h-12 xl:w-12 2xl:h-16 2xl:w-16" data-v-38162434=""><g id="download_1_" data-name="download (1)" transform="translate(-16 -24)" data-v-38162434=""><path id="Path_20600" fill="#0c0b52" data-name="Path 20600" d="M35.241,40.034V31.483a3.212,3.212,0,0,0-2.217-3.05A5.352,5.352,0,0,0,27.758,24H23.483a5.352,5.352,0,0,0-5.265,4.433A3.212,3.212,0,0,0,16,31.483v8.552a3.212,3.212,0,0,0,2.138,3.023V78.517a7.483,7.483,0,1,0,14.965,0V43.057a3.212,3.212,0,0,0,2.138-3.023Zm-11.758-13.9h4.276a3.212,3.212,0,0,1,3.023,2.138H20.46a3.212,3.212,0,0,1,3.023-2.138ZM20.276,50.724H26.69V72.1H20.276Zm5.345,33.138a5.351,5.351,0,0,1-5.345-5.345V74.241h7.483a1.069,1.069,0,0,0,1.069-1.069V49.655a1.069,1.069,0,0,0-1.069-1.069H20.276V43.241h10.69V78.517a5.351,5.351,0,0,1-5.345,5.345ZM33.1,40.034A1.07,1.07,0,0,1,32.034,41.1H19.207a1.07,1.07,0,0,1-1.069-1.069V31.483a1.07,1.07,0,0,1,1.069-1.069h1.069v6.414h2.138V30.414h2.138v6.414H26.69V30.414h2.138v6.414h2.138V30.414h1.069A1.07,1.07,0,0,1,33.1,31.483Z" transform="translate(0 0)" data-v-38162434=""></path> <path id="Path_20601" data-name="Path 20601" d="M194.455,135.651a4.276,4.276,0,1,0,0-8.552H170.088l5.223-5.968a3.93,3.93,0,0,0-5.129-5.866l-8.388,5.6a1.072,1.072,0,0,0-.162.134l-4.034,4.034-.731.122.351,2.109,1.069-.178a1.068,1.068,0,0,0,.58-.3l4.2-4.2,8.3-5.542a1.793,1.793,0,0,1,2.333,2.68c-1.866,2.131-6.774,7.741-6.774,7.741a1.067,1.067,0,0,0-.178.283l-1.1,2.57a7.028,7.028,0,0,1-6.467,4.265v2.138a9.164,9.164,0,0,0,8.433-5.561l.824-1.922h26.019a2.138,2.138,0,0,1,0,4.276H173.076a4.273,4.273,0,0,0-3.271,7.026,4.271,4.271,0,0,0-.629,6.864,4.265,4.265,0,0,0-.869,5.338h-4.088a15.851,15.851,0,0,1-6.721-1.506l-.912,1.934a18,18,0,0,0,7.633,1.71H179.49a4.273,4.273,0,0,0,2.831-7.476,4.267,4.267,0,0,0,.72-5.579,4.271,4.271,0,0,0,2.288-6.172ZM181.628,150.6a2.14,2.14,0,0,1-2.138,2.138h-7.483a2.137,2.137,0,0,1-.172-4.267c.057,0,7.769,0,7.826,0A2.14,2.14,0,0,1,181.628,150.6Zm-9.792-4.271a2.137,2.137,0,0,1,.172-4.267h7.483a2.137,2.137,0,0,1,.172,4.267C179.6,146.329,171.893,146.329,171.836,146.331Zm11.93-8.543a2.14,2.14,0,0,1-2.138,2.138h-8.552a2.138,2.138,0,1,1,0-4.276h8.552A2.14,2.14,0,0,1,183.766,137.789Z" transform="translate(-121.801 -78.5)" data-v-38162434=""></path> <rect id="Rectangle_22321" data-name="Rectangle 22321" width="14.965" height="2.138" transform="translate(55.551 44.323)" data-v-38162434=""></rect> <path id="Path_20602" data-name="Path 20602" d="M392.167,296.247a1.069,1.069,0,0,0-1.369,0c-.278.231-6.8,5.732-6.8,11.511a7.483,7.483,0,1,0,14.965,0C398.965,301.979,392.445,296.478,392.167,296.247Zm-.684,16.855a5.351,5.351,0,0,1-5.345-5.345c0-3.793,3.767-7.756,5.346-9.25a25.676,25.676,0,0,1,2.371,2.569c1.356,1.695,2.973,4.23,2.973,6.681a5.351,5.351,0,0,1-5.345,5.345Z" transform="translate(-318.828 -235.655)" data-v-38162434=""></path></g></svg>