<svg id="qrcode" xmlns="http://www.w3.org/2000/svg" width="150" height="150" viewBox="0 0 222 222"><rect id="Rectangle_22323" data-v-05b65f87="" data-name="Rectangle 22323" width="222" height="222" fill="#fff"></rect> <g id="elements" data-v-05b65f87="" transform="translate(0 0)"><path id="Path_20604" data-v-05b65f87="" data-name="Path 20604" d="M10,10h8.862v8.862H10Zm8.862,0h8.862v8.862H18.862Zm8.862,0h8.862v8.862H27.723Zm8.862,0h8.862v8.862H36.585Zm8.862,0h8.862v8.862H45.446Zm8.862,0H63.17v8.862H54.308Zm8.862,0h8.862v8.862H63.17Zm26.585,0h8.862v8.862H89.754ZM125.2,10h8.862v8.862H125.2Zm26.585,0h8.862v8.862h-8.862Zm17.723,0h8.862v8.862h-8.862Zm8.862,0h8.862v8.862H178.37Zm8.862,0h8.862v8.862h-8.862Zm8.862,0h8.862v8.862h-8.862Zm8.862,0h8.862v8.862h-8.862Zm8.862,0h8.862v8.862h-8.862Zm8.862,0h8.862v8.862h-8.862ZM10,18.862h8.862v8.862H10Zm53.17,0h8.862v8.862H63.17Zm17.723,0h8.862v8.862H80.893Zm8.862,0h8.862v8.862H89.754Zm17.723,0h8.862v8.862h-8.862Zm8.862,0H125.2v8.862h-8.862Zm8.862,0h8.862v8.862H125.2Zm8.862,0h8.862v8.862h-8.862Zm8.862,0h8.862v8.862h-8.862Zm8.862,0h8.862v8.862h-8.862Zm17.723,0h8.862v8.862h-8.862Zm53.17,0h8.862v8.862h-8.862ZM10,27.723h8.862v8.862H10Zm17.723,0h8.862v8.862H27.723Zm8.862,0h8.862v8.862H36.585Zm8.862,0h8.862v8.862H45.446Zm17.723,0h8.862v8.862H63.17Zm26.585,0h8.862v8.862H89.754Zm8.862,0h8.862v8.862H98.616Zm8.862,0h8.862v8.862h-8.862Zm26.585,0h8.862v8.862h-8.862Zm35.446,0h8.862v8.862h-8.862Zm17.723,0h8.862v8.862h-8.862Zm8.862,0h8.862v8.862h-8.862Zm8.862,0h8.862v8.862h-8.862Zm17.723,0h8.862v8.862h-8.862ZM10,36.585h8.862v8.862H10Zm17.723,0h8.862v8.862H27.723Zm8.862,0h8.862v8.862H36.585Zm8.862,0h8.862v8.862H45.446Zm17.723,0h8.862v8.862H63.17Zm17.723,0h8.862v8.862H80.893Zm8.862,0h8.862v8.862H89.754Zm17.723,0h8.862v8.862h-8.862Zm17.723,0h8.862v8.862H125.2Zm8.862,0h8.862v8.862h-8.862Zm8.862,0h8.862v8.862h-8.862Zm26.585,0h8.862v8.862h-8.862Zm17.723,0h8.862v8.862h-8.862Zm8.862,0h8.862v8.862h-8.862Zm8.862,0h8.862v8.862h-8.862Zm17.723,0h8.862v8.862h-8.862ZM10,45.446h8.862v8.862H10Zm17.723,0h8.862v8.862H27.723Zm8.862,0h8.862v8.862H36.585Zm8.862,0h8.862v8.862H45.446Zm17.723,0h8.862v8.862H63.17Zm35.446,0h8.862v8.862H98.616Zm17.723,0H125.2v8.862h-8.862Zm8.862,0h8.862v8.862H125.2Zm26.585,0h8.862v8.862h-8.862Zm17.723,0h8.862v8.862h-8.862Zm17.723,0h8.862v8.862h-8.862Zm8.862,0h8.862v8.862h-8.862Zm8.862,0h8.862v8.862h-8.862Zm17.723,0h8.862v8.862h-8.862ZM10,54.308h8.862V63.17H10Zm53.17,0h8.862V63.17H63.17Zm17.723,0h8.862V63.17H80.893Zm17.723,0h8.862V63.17H98.616Zm35.446,0h8.862V63.17h-8.862Zm8.862,0h8.862V63.17h-8.862Zm26.585,0h8.862V63.17h-8.862Zm53.17,0h8.862V63.17h-8.862ZM10,63.17h8.862v8.862H10Zm8.862,0h8.862v8.862H18.862Zm8.862,0h8.862v8.862H27.723Zm8.862,0h8.862v8.862H36.585Zm8.862,0h8.862v8.862H45.446Zm8.862,0H63.17v8.862H54.308Zm8.862,0h8.862v8.862H63.17Zm17.723,0h8.862v8.862H80.893Zm17.723,0h8.862v8.862H98.616Zm17.723,0H125.2v8.862h-8.862Zm17.723,0h8.862v8.862h-8.862Zm17.723,0h8.862v8.862h-8.862Zm17.723,0h8.862v8.862h-8.862Zm8.862,0h8.862v8.862H178.37Zm8.862,0h8.862v8.862h-8.862Zm8.862,0h8.862v8.862h-8.862Zm8.862,0h8.862v8.862h-8.862Zm8.862,0h8.862v8.862h-8.862Zm8.862,0h8.862v8.862h-8.862ZM116.339,72.031H125.2v8.862h-8.862Zm17.723,0h8.862v8.862h-8.862Zm17.723,0h8.862v8.862h-8.862ZM10,80.893h8.862v8.862H10Zm8.862,0h8.862v8.862H18.862Zm8.862,0h8.862v8.862H27.723Zm8.862,0h8.862v8.862H36.585Zm8.862,0h8.862v8.862H45.446Zm17.723,0h8.862v8.862H63.17Zm8.862,0h8.862v8.862H72.031Zm8.862,0h8.862v8.862H80.893Zm8.862,0h8.862v8.862H89.754Zm8.862,0h8.862v8.862H98.616Zm17.723,0H125.2v8.862h-8.862Zm8.862,0h8.862v8.862H125.2Zm35.446,0h8.862v8.862h-8.862Zm17.723,0h8.862v8.862H178.37Zm17.723,0h8.862v8.862h-8.862Zm17.723,0h8.862v8.862h-8.862ZM10,89.754h8.862v8.862H10Zm17.723,0h8.862v8.862H27.723Zm17.723,0h8.862v8.862H45.446Zm35.446,0h8.862v8.862H80.893Zm8.862,0h8.862v8.862H89.754Zm35.446,0h8.862v8.862H125.2Zm53.17,0h8.862v8.862H178.37Zm35.446,0h8.862v8.862h-8.862ZM18.862,98.616h8.862v8.862H18.862Zm8.862,0h8.862v8.862H27.723Zm17.723,0h8.862v8.862H45.446Zm8.862,0H63.17v8.862H54.308Zm8.862,0h8.862v8.862H63.17Zm8.862,0h8.862v8.862H72.031Zm8.862,0h8.862v8.862H80.893Zm8.862,0h8.862v8.862H89.754Zm17.723,0h8.862v8.862h-8.862Zm8.862,0H125.2v8.862h-8.862Zm8.862,0h8.862v8.862H125.2Zm8.862,0h8.862v8.862h-8.862Zm8.862,0h8.862v8.862h-8.862Zm8.862,0h8.862v8.862h-8.862Zm8.862,0h8.862v8.862h-8.862Zm35.446,0h8.862v8.862h-8.862Zm17.723,0h8.862v8.862h-8.862Zm8.862,0h8.862v8.862h-8.862ZM45.446,107.478h8.862v8.862H45.446Zm8.862,0H63.17v8.862H54.308Zm35.446,0h8.862v8.862H89.754Zm8.862,0h8.862v8.862H98.616Zm8.862,0h8.862v8.862h-8.862Zm35.446,0h8.862v8.862h-8.862Zm8.862,0h8.862v8.862h-8.862Zm8.862,0h8.862v8.862h-8.862Zm17.723,0h8.862v8.862H178.37Zm44.308,0h8.862v8.862h-8.862ZM10,116.339h8.862V125.2H10Zm35.446,0h8.862V125.2H45.446Zm17.723,0h8.862V125.2H63.17Zm8.862,0h8.862V125.2H72.031Zm17.723,0h8.862V125.2H89.754Zm17.723,0h8.862V125.2h-8.862Zm8.862,0H125.2V125.2h-8.862Zm8.862,0h8.862V125.2H125.2Zm8.862,0h8.862V125.2h-8.862Zm8.862,0h8.862V125.2h-8.862Zm17.723,0h8.862V125.2h-8.862Zm8.862,0h8.862V125.2h-8.862Zm17.723,0h8.862V125.2h-8.862Zm17.723,0h8.862V125.2h-8.862Zm8.862,0h8.862V125.2h-8.862Zm8.862,0h8.862V125.2h-8.862ZM10,125.2h8.862v8.862H10Zm8.862,0h8.862v8.862H18.862Zm8.862,0h8.862v8.862H27.723Zm8.862,0h8.862v8.862H36.585Zm8.862,0h8.862v8.862H45.446Zm8.862,0H63.17v8.862H54.308Zm17.723,0h8.862v8.862H72.031Zm8.862,0h8.862v8.862H80.893Zm17.723,0h8.862v8.862H98.616Zm17.723,0H125.2v8.862h-8.862Zm35.446,0h8.862v8.862h-8.862Zm26.585,0h8.862v8.862H178.37Zm17.723,0h8.862v8.862h-8.862Zm17.723,0h8.862v8.862h-8.862ZM10,134.062h8.862v8.862H10Zm44.308,0H63.17v8.862H54.308Zm8.862,0h8.862v8.862H63.17Zm8.862,0h8.862v8.862H72.031Zm8.862,0h8.862v8.862H80.893Zm35.446,0H125.2v8.862h-8.862Zm8.862,0h8.862v8.862H125.2Zm17.723,0h8.862v8.862h-8.862Zm8.862,0h8.862v8.862h-8.862Zm17.723,0h8.862v8.862h-8.862Zm8.862,0h8.862v8.862H178.37Zm8.862,0h8.862v8.862h-8.862Zm8.862,0h8.862v8.862h-8.862Zm17.723,0h8.862v8.862h-8.862Zm8.862,0h8.862v8.862h-8.862ZM10,142.924h8.862v8.862H10Zm26.585,0h8.862v8.862H36.585Zm44.308,0h8.862v8.862H80.893Zm35.446,0H125.2v8.862h-8.862Zm26.585,0h8.862v8.862h-8.862Zm8.862,0h8.862v8.862h-8.862Zm8.862,0h8.862v8.862h-8.862Zm17.723,0h8.862v8.862H178.37Zm8.862,0h8.862v8.862h-8.862Zm35.446,0h8.862v8.862h-8.862ZM10,151.785h8.862v8.862H10Zm17.723,0h8.862v8.862H27.723Zm35.446,0h8.862v8.862H63.17Zm62.031,0h8.862v8.862H125.2Zm8.862,0h8.862v8.862h-8.862Zm17.723,0h8.862v8.862h-8.862Zm8.862,0h8.862v8.862h-8.862Zm8.862,0h8.862v8.862h-8.862Zm8.862,0h8.862v8.862H178.37Zm8.862,0h8.862v8.862h-8.862Zm17.723,0h8.862v8.862h-8.862ZM80.893,160.647h8.862v8.862H80.893Zm8.862,0h8.862v8.862H89.754Zm17.723,0h8.862v8.862h-8.862Zm35.446,0h8.862v8.862h-8.862Zm8.862,0h8.862v8.862h-8.862Zm35.446,0h8.862v8.862h-8.862Zm8.862,0h8.862v8.862h-8.862ZM10,169.509h8.862v8.862H10Zm8.862,0h8.862v8.862H18.862Zm8.862,0h8.862v8.862H27.723Zm8.862,0h8.862v8.862H36.585Zm8.862,0h8.862v8.862H45.446Zm8.862,0H63.17v8.862H54.308Zm8.862,0h8.862v8.862H63.17Zm17.723,0h8.862v8.862H80.893Zm8.862,0h8.862v8.862H89.754Zm8.862,0h8.862v8.862H98.616Zm17.723,0H125.2v8.862h-8.862Zm17.723,0h8.862v8.862h-8.862Zm17.723,0h8.862v8.862h-8.862Zm17.723,0h8.862v8.862h-8.862Zm17.723,0h8.862v8.862h-8.862Zm17.723,0h8.862v8.862h-8.862Zm8.862,0h8.862v8.862h-8.862Zm8.862,0h8.862v8.862h-8.862ZM10,178.37h8.862v8.862H10Zm53.17,0h8.862v8.862H63.17Zm53.17,0H125.2v8.862h-8.862Zm35.446,0h8.862v8.862h-8.862Zm35.446,0h8.862v8.862h-8.862Zm8.862,0h8.862v8.862h-8.862ZM10,187.232h8.862v8.862H10Zm17.723,0h8.862v8.862H27.723Zm8.862,0h8.862v8.862H36.585Zm8.862,0h8.862v8.862H45.446Zm17.723,0h8.862v8.862H63.17Zm17.723,0h8.862v8.862H80.893Zm17.723,0h8.862v8.862H98.616Zm26.585,0h8.862v8.862H125.2Zm17.723,0h8.862v8.862h-8.862Zm8.862,0h8.862v8.862h-8.862Zm8.862,0h8.862v8.862h-8.862Zm8.862,0h8.862v8.862h-8.862Zm8.862,0h8.862v8.862H178.37Zm8.862,0h8.862v8.862h-8.862Zm17.723,0h8.862v8.862h-8.862ZM10,196.093h8.862v8.862H10Zm17.723,0h8.862v8.862H27.723Zm8.862,0h8.862v8.862H36.585Zm8.862,0h8.862v8.862H45.446Zm17.723,0h8.862v8.862H63.17Zm17.723,0h8.862v8.862H80.893Zm26.585,0h8.862v8.862h-8.862Zm17.723,0h8.862v8.862H125.2Zm35.446,0h8.862v8.862h-8.862Zm8.862,0h8.862v8.862h-8.862Zm17.723,0h8.862v8.862h-8.862Zm8.862,0h8.862v8.862h-8.862Zm8.862,0h8.862v8.862h-8.862Zm8.862,0h8.862v8.862h-8.862Zm8.862,0h8.862v8.862h-8.862ZM10,204.955h8.862v8.862H10Zm17.723,0h8.862v8.862H27.723Zm8.862,0h8.862v8.862H36.585Zm8.862,0h8.862v8.862H45.446Zm17.723,0h8.862v8.862H63.17Zm17.723,0h8.862v8.862H80.893Zm17.723,0h8.862v8.862H98.616Zm26.585,0h8.862v8.862H125.2Zm8.862,0h8.862v8.862h-8.862Zm8.862,0h8.862v8.862h-8.862Zm8.862,0h8.862v8.862h-8.862Zm8.862,0h8.862v8.862h-8.862Zm35.446,0h8.862v8.862h-8.862Zm8.862,0h8.862v8.862h-8.862Zm17.723,0h8.862v8.862h-8.862ZM10,213.817h8.862v8.862H10Zm53.17,0h8.862v8.862H63.17Zm17.723,0h8.862v8.862H80.893Zm8.862,0h8.862v8.862H89.754Zm8.862,0h8.862v8.862H98.616Zm17.723,0H125.2v8.862h-8.862Zm17.723,0h8.862v8.862h-8.862Zm8.862,0h8.862v8.862h-8.862Zm8.862,0h8.862v8.862h-8.862Zm8.862,0h8.862v8.862h-8.862Zm8.862,0h8.862v8.862h-8.862Zm8.862,0h8.862v8.862H178.37Zm8.862,0h8.862v8.862h-8.862Zm8.862,0h8.862v8.862h-8.862Zm26.585,0h8.862v8.862h-8.862ZM10,222.678h8.862v8.862H10Zm8.862,0h8.862v8.862H18.862Zm8.862,0h8.862v8.862H27.723Zm8.862,0h8.862v8.862H36.585Zm8.862,0h8.862v8.862H45.446Zm8.862,0H63.17v8.862H54.308Zm8.862,0h8.862v8.862H63.17Zm17.723,0h8.862v8.862H80.893Zm8.862,0h8.862v8.862H89.754Zm8.862,0h8.862v8.862H98.616Zm17.723,0H125.2v8.862h-8.862Zm8.862,0h8.862v8.862H125.2Zm8.862,0h8.862v8.862h-8.862Zm35.446,0h8.862v8.862h-8.862Zm8.862,0h8.862v8.862H178.37Zm8.862,0h8.862v8.862h-8.862Zm8.862,0h8.862v8.862h-8.862Zm8.862,0h8.862v8.862h-8.862Zm8.862,0h8.862v8.862h-8.862Zm8.862,0h8.862v8.862h-8.862Z" transform="translate(-10 -10)"></path></g></svg>