<svg xmlns="http://www.w3.org/2000/svg" width="23.932" height="19.156" viewBox="0 0 23.932 19.156" data-v-38162434=""><path id="scale-unbalanced-flip-solid" d="M20.787,9.8a1.8,1.8,0,0,0-3.215,0c-3.235,6.467-3.184,6.194-3.184,6.8-.033,1.651,2.146,3,4.793,3s4.759-1.344,4.759-2.962C23.94,16.009,24.049,16.32,20.787,9.8Zm-4.306,6.2,2.7-5.359,2.7,5.359Zm2.7-8.388a1.2,1.2,0,0,0,.379-2.335l-4.572-1.5a2.955,2.955,0,0,0,.033-.324,2.966,2.966,0,0,0-5.53-1.52L5.248.512a1.195,1.195,0,1,0-.825,2.241L9.153,4.329a2.992,2.992,0,0,0,1.639,1.826V17.191H5.4a1.761,1.761,0,0,0-1.764,1.764.565.565,0,0,0,.565.634h8.354a.563.563,0,0,0,.565-.565V6.157a2.983,2.983,0,0,0,.531-.3l5.081,1.694A2.128,2.128,0,0,0,19.181,7.606ZM9.595,11.8c0-.585.041-.272-3.187-6.8A1.8,1.8,0,0,0,3.193,5C-.041,11.471.009,11.2.009,11.8c0,1.652,2.144,2.962,4.759,2.962S9.595,13.451,9.595,11.8ZM4.8,5.809l2.7,5.359H2.1Z" transform="translate(-0.009 -0.433)" fill="#0c0b52" data-v-38162434=""></path></svg>