<svg xmlns="http://www.w3.org/2000/svg" width="25" height="25" data-v-896c7642=""><g data-name="Group 24533" data-v-896c7642=""><path data-name="Rectangle 24542" fill="#fff" d="M0 0h25v25H0z" data-v-896c7642=""></path> <g data-name="Group 24129" transform="translate(1)" data-v-896c7642=""><path data-name="Path 25302" d="M20.897 23.489c-.014 0-1.377-1.241-1.47-1.147s-4.736 0-4.736 0l-1.441 1.136v1.043a.48.48 0 0 0 .48.48h6.7a.48.48 0 0 0 .48-.48v-1.034Z" fill="#62dbfb" data-v-896c7642=""></path> <circle data-name="Ellipse 1461" cx="8.154" cy="8.154" r="8.154" transform="translate(3.63)" fill="#f9f7f8" data-v-896c7642=""></circle> <path data-name="Path 25303" d="m12.383 13.81 4.244-4.656a2.982 2.982 0 0 0-.1-4.118l-.01-.01a2.983 2.983 0 0 0-4.217 0l-.533.533-.544-.541a2.982 2.982 0 0 0-4.294 4.137l4.306 4.659a.776.776 0 0 0 1.148-.004Z" fill="#fd8087" data-v-896c7642=""></path> <g data-name="Group 24123" data-v-896c7642=""><path data-name="Path 25304" d="M9.126 9.155a2.983 2.983 0 0 1 1.094-4.8 2.982 2.982 0 0 0-3.286 4.8l4.306 4.659a.776.776 0 0 0 1.143 0l.519-.569Z" fill="#fe646f" data-v-896c7642=""></path></g> <g data-name="Group 24124" data-v-896c7642=""><path data-name="Path 25305" d="M9.667 21.999v.013a.814.814 0 0 0-.146-.013H3.584a.82.82 0 0 0-.146.013v-2.741l-2.982-3.64a2 2 0 0 1-.454-1.27V7.882a1.22 1.22 0 0 1 2.438-.065l.24 4.507.008.011a1 1 0 0 1 1.243.024l5.226 4.28a1.4 1.4 0 0 1 .511 1.08Z" fill="#ffcebf" data-v-896c7642=""></path></g> <path data-name="Path 25306" d="M4.582 19.167a2.391 2.391 0 0 0-.542-1.516L1.6 14.672a2 2 0 0 1-.454-1.27V6.923a1.225 1.225 0 0 1 .028-.26A1.219 1.219 0 0 0 0 7.882v6.479a2 2 0 0 0 .454 1.27l2.982 3.64v2.741a.82.82 0 0 1 .146-.013h1v-2.832Z" fill="#ffb09e" data-v-896c7642=""></path> <path data-name="Path 25307" d="m4.121 22.716-1.4.772v1.059a.452.452 0 0 0 .452.452h6.756a.452.452 0 0 0 .452-.452v-1.059l-.794-.772Z" fill="#62dbfb" data-v-896c7642=""></path> <g data-name="Group 24125" data-v-896c7642=""><path data-name="Path 25308" d="M13.965 21.999v.013a.814.814 0 0 1 .146-.013h5.935a.819.819 0 0 1 .146.013v-2.741l2.982-3.64a2 2 0 0 0 .454-1.27V7.882a1.22 1.22 0 0 0-2.439-.065l-.24 4.507-.008.011a1 1 0 0 0-1.243.024l-5.226 4.28a1.4 1.4 0 0 0-.511 1.08Z" fill="#ffcebf" data-v-896c7642=""></path></g> <path data-name="Path 25309" d="M21.958 11.999a.5.5 0 0 0 .2-.373l.177-3.322a1.22 1.22 0 0 1 1.06-1.145 1.231 1.231 0 0 0-.118-.137 1.22 1.22 0 0 0-2.081.8l-.24 4.507-.008.011a1 1 0 0 0-1.243.024l-5.226 4.28a1.4 1.4 0 0 0-.511 1.08v4.288a.814.814 0 0 1 .146-.013h.991v-3.8a1.4 1.4 0 0 1 .511-1.08l5.226-4.28Z" fill="#ffb09e" data-v-896c7642=""></path> <g data-name="Group 24128" data-v-896c7642=""><g data-name="Group 24126" data-v-896c7642=""><path data-name="Path 25310" d="M4.95 16.593a.377.377 0 0 1-.267-.111l-2.367-2.367a1.383 1.383 0 0 1 0-1.956.378.378 0 0 1 .534.534.627.627 0 0 0 0 .887l2.367 2.367a.378.378 0 0 1-.267.645Z" fill="#ffb09e" data-v-896c7642=""></path></g> <g data-name="Group 24127" fill="#99e6fc" data-v-896c7642=""><path data-name="Path 25311" d="M20.896 22.057v1.432h-7.661v-1.432a.863.863 0 0 1 .717-.85.814.814 0 0 1 .146-.013h5.935a.82.82 0 0 1 .146.013.863.863 0 0 1 .717.85Z" data-v-896c7642=""></path> <path data-name="Path 25312" d="M10.382 22.057v1.432H2.721v-1.432a.863.863 0 0 1 .717-.85.82.82 0 0 1 .146-.013h5.935a.814.814 0 0 1 .146.013.863.863 0 0 1 .717.85Z" data-v-896c7642=""></path></g></g></g> <path data-name="Path 25313" d="M22.707 13.137a1.374 1.374 0 0 0-.405-.978 1.354 1.354 0 0 0-.144-.125.376.376 0 0 0-.185-.073l-.019.365-.008.011a.993.993 0 0 0-.351-.171.378.378 0 0 0 .11.473.6.6 0 0 1 .063.055.627.627 0 0 1 0 .887l-2.367 2.367a.378.378 0 0 0 .535.534l2.367-2.367a1.374 1.374 0 0 0 .404-.978Z" fill="#ffb09e" data-v-896c7642=""></path></g></svg>