<svg xmlns="http://www.w3.org/2000/svg" width="25" height="25" data-v-896c7642=""><g data-name="Group 24545" data-v-896c7642=""><path data-name="Rectangle 24542" fill="#fff" d="M0 0h25v25H0z" data-v-896c7642=""></path> <path data-name="Path 25314" d="M23.12 11.765v8.22a2.9 2.9 0 0 1-2.892 2.892H7.092A2.9 2.9 0 0 1 4.2 19.985v-8.22a.664.664 0 0 1 .2-.474l7.762-7.629a2.149 2.149 0 0 1 3 0l7.762 7.629a.664.664 0 0 1 .196.474Z" fill="#efefef" data-v-896c7642=""></path> <path data-name="Path 25315" d="M23.12 11.765v8.22a2.9 2.9 0 0 1-2.892 2.892H13.66V3.053a2.133 2.133 0 0 1 1.5.61l7.762 7.629a.664.664 0 0 1 .198.473Z" fill="#e5e5e9" data-v-896c7642=""></path> <path data-name="Path 25316" d="M24.81 13.149a.665.665 0 0 1-.94.008L14.228 3.68a.814.814 0 0 0-1.136 0L3.45 13.157a.664.664 0 1 1-.93-.948l9.642-9.477a2.149 2.149 0 0 1 3 0l9.642 9.477a.665.665 0 0 1 .006.94Z" fill="#6e6e6e" data-v-896c7642=""></path> <path data-name="Path 25317" d="M18.232 13.181v2.652a.443.443 0 0 1-.443.443H15.43v2.36a.443.443 0 0 1-.443.443h-2.652a.443.443 0 0 1-.443-.443v-2.36h-2.36a.443.443 0 0 1-.443-.443v-2.652a.443.443 0 0 1 .443-.443h2.36v-2.36a.443.443 0 0 1 .443-.443h2.655a.443.443 0 0 1 .443.443v2.36h2.357a.443.443 0 0 1 .442.443Z" fill="#ff6769" data-v-896c7642=""></path> <path data-name="Path 25318" d="M18.232 13.181v2.652a.443.443 0 0 1-.443.443H15.43v2.36a.443.443 0 0 1-.443.443H13.66V9.936h1.326a.443.443 0 0 1 .443.443v2.36h2.359a.443.443 0 0 1 .444.442Z" fill="#ff0c6c" data-v-896c7642=""></path> <path data-name="Path 25319" d="M24.81 13.149a.665.665 0 0 1-.94.008L14.228 3.68a.807.807 0 0 0-.568-.231V2.123a2.133 2.133 0 0 1 1.5.61l9.642 9.477a.665.665 0 0 1 .008.94Z" fill="#5a5a5a" data-v-896c7642=""></path></g></svg>