<svg xmlns="http://www.w3.org/2000/svg" width="50" height="55" viewBox="0 0 50 55">
  <g id="Group_5692" data-name="Group 5692" transform="translate(-1160.55 -312.679)">
    <g id="Group_5677" data-name="Group 5677" transform="translate(1161.465 312.679)">
      <g id="Group_5676" data-name="Group 5676" transform="translate(0)">
        <g id="Group_5675" data-name="Group 5675">
          <g id="Group_5673" data-name="Group 5673" transform="translate(0.405 0.387)">
            <path id="Path_2562" data-name="Path 2562" d="M1192.278,324.053c-.054-.217-.113-.433-.186-.644a12.171,12.171,0,0,0-4.936-6.013,1.792,1.792,0,0,0-1.38-.24A24.771,24.771,0,0,0,1172,313.739c-6.322.564-6.7,3.329-7.343,7.9v0a1.721,1.721,0,0,0-.845,1.612,1.771,1.771,0,0,0,1.94,1.556,1.742,1.742,0,0,0,1.621-1.871,1.686,1.686,0,0,0-.5-.992l.015-.014c.614-4.461.786-5.641,5.32-6.046a22.791,22.791,0,0,1,12.3,3.061,1.609,1.609,0,0,0,.678,1.072c1.655,1.133,3.674,3,3.91,5.4s-1.41,4.6-2.819,6a1.611,1.611,0,0,0-.462,1.175,22.365,22.365,0,0,1-11.479,5.176c-4.528.4-4.927-.743-6.39-4.993l-.02-.037a1.618,1.618,0,0,0,.295-1.039,1.776,1.776,0,0,0-1.955-1.552,1.737,1.737,0,0,0-1.606,1.871,1.7,1.7,0,0,0,1.139,1.415l.015,0c1.508,4.377,2.426,7.024,8.733,6.459a24.553,24.553,0,0,0,12.854-5.764,1.773,1.773,0,0,0,1.306-.48,11.727,11.727,0,0,0,3.753-7.174c.01-.1.015-.2.019-.305Z" transform="translate(-1163.807 -313.677)" fill="#4285f4"/>
          </g>
          <g id="Group_5674" data-name="Group 5674">
            <path id="Path_2563" data-name="Path 2563" d="M1172.395,339.758c-5.138,0-6.138-2.7-7.5-6.64a2.07,2.07,0,0,1-1.229-1.667,2.037,2.037,0,0,1,.5-1.547,2.188,2.188,0,0,1,1.473-.746,2.246,2.246,0,0,1,1.608.476,2.071,2.071,0,0,1,.787,1.426,1.918,1.918,0,0,1-.252,1.113c1.419,4.119,1.753,4.98,5.926,4.606a21.809,21.809,0,0,0,11.113-4.965,2,2,0,0,1,.565-1.262c1.362-1.358,2.932-3.444,2.714-5.706s-2.157-4.032-3.742-5.117a2.01,2.01,0,0,1-.8-1.144,22.246,22.246,0,0,0-11.9-2.917c-4.175.372-4.344,1.275-4.935,5.568a1.97,1.97,0,0,1,.463,1.06,2.137,2.137,0,0,1-1.986,2.294,2.224,2.224,0,0,1-1.6-.48,2.043,2.043,0,0,1,.088-3.291c.638-4.523,1.13-7.493,7.684-8.078a25.345,25.345,0,0,1,13.893,3.4,2.169,2.169,0,0,1,1.533.332,12.5,12.5,0,0,1,5.088,6.213c.065.185.125.394.193.669l.009.053.214,2.157v.028c-.006.116-.011.217-.021.322a12.163,12.163,0,0,1-3.862,7.407,2.142,2.142,0,0,1-1.442.6A25.129,25.129,0,0,1,1174,339.681Q1173.136,339.758,1172.395,339.758Zm-6.543-9.833c-.044,0-.088,0-.133.006a1.371,1.371,0,0,0-.924.469,1.291,1.291,0,0,0-.317.979,1.316,1.316,0,0,0,.884,1.09l.178.066.074.178c1.5,4.34,2.315,6.733,8.31,6.195a24.238,24.238,0,0,0,12.618-5.664l.12-.1.162,0a1.347,1.347,0,0,0,1.005-.36,11.421,11.421,0,0,0,3.641-6.935c.009-.094.013-.18.018-.267l-.206-2.075c-.059-.239-.112-.42-.17-.585a11.746,11.746,0,0,0-4.79-5.822,1.376,1.376,0,0,0-1.058-.174l-.16.032-.139-.083a24.432,24.432,0,0,0-13.52-3.36c-5.989.534-6.339,3.024-6.975,7.544v.208l-.18.092a1.331,1.331,0,0,0-.666,1.252,1.308,1.308,0,0,0,.493.9,1.4,1.4,0,0,0,1.007.3,1.35,1.35,0,0,0,1.254-1.448,1.313,1.313,0,0,0-.4-.771l-.256-.277.191-.178c.6-4.345.849-5.818,5.665-6.248a23.191,23.191,0,0,1,12.553,3.116l.161.094.028.18a1.225,1.225,0,0,0,.517.816c1.717,1.176,3.822,3.117,4.073,5.673s-1.458,4.84-2.931,6.308a1.229,1.229,0,0,0-.349.894l.006.18-.139.121a22.724,22.724,0,0,1-11.713,5.274c-4.84.433-5.344-.994-6.8-5.231l-.11-.21.124-.186a1.253,1.253,0,0,0,.232-.8,1.308,1.308,0,0,0-.5-.9A1.415,1.415,0,0,0,1165.852,329.925Z" transform="translate(-1162.807 -312.679)" fill="#4285f4"/>
          </g>
        </g>
      </g>
    </g>
    <g id="Group_5680" data-name="Group 5680" transform="translate(1164.174 322.289)">
      <g id="Group_5678" data-name="Group 5678" transform="translate(0.573 0.415)">
        <path id="Path_2564" data-name="Path 2564" d="M1196.311,338.612c-.261-.033-.521-.066-.786-.094l-1.567,2.9a20.855,20.855,0,0,1,2.731.277c9.13,1.514,16.179,8.82,16.866,17.818.039.48.059.968.059,1.458,0,.371-.01.743-.03,1.109-.565,9.638-8.409,17.409-18.35,18.368-.678.061-1.365.094-2.063.094-.206,0-.413,0-.619-.009a20.484,20.484,0,0,1-17.952-11.368c-.177-.362-.339-.729-.491-1.1a5.812,5.812,0,0,1-1.292.145H1170.9c.211.573.447,1.138.707,1.688a23.439,23.439,0,0,0,21.321,13.211c12.908,0,23.369-10.014,23.369-22.364C1216.3,349.486,1207.617,340.173,1196.311,338.612Z" transform="translate(-1170.903 -338.518)" fill="#4285f4"/>
      </g>
      <g id="Group_5679" data-name="Group 5679" transform="translate(0 0)">
        <path id="Path_2565" data-name="Path 2565" d="M1192.092,382.838A23.893,23.893,0,0,1,1170.4,369.4c-.26-.548-.5-1.126-.72-1.718l-.191-.517h2.489a5.388,5.388,0,0,0,1.2-.135l.342-.079.129.314c.159.389.317.742.481,1.077a19.971,19.971,0,0,0,17.6,11.144h.042a23.115,23.115,0,0,0,2.591-.084c9.863-.951,17.427-8.523,17.983-18,.019-.352.028-.719.028-1.088,0-.483-.019-.963-.058-1.427a19.448,19.448,0,0,0-16.532-17.466,20.48,20.48,0,0,0-2.676-.272l-.639-.022,1.989-3.676.276.029c.266.028.526.061.788.095h.011c11.594,1.6,20.338,11.279,20.338,22.513C1215.866,372.631,1205.2,382.838,1192.092,382.838Zm-21.448-14.9c.155.39.321.771.5,1.14a23.078,23.078,0,0,0,20.952,12.983c12.662,0,22.964-9.859,22.964-21.976,0-10.85-8.443-20.2-19.64-21.745h-.005l-.494-.061-1.149,2.124a21.247,21.247,0,0,1,2.152.251,20.235,20.235,0,0,1,17.2,18.171c.04.482.06.983.06,1.486,0,.383-.01.763-.03,1.129-.578,9.866-8.449,17.744-18.714,18.734a23.874,23.874,0,0,1-2.688.087h-.044a20.78,20.78,0,0,1-18.311-11.593c-.127-.26-.25-.53-.373-.817a6.253,6.253,0,0,1-1.042.088Z" transform="translate(-1169.49 -337.448)" fill="#4285f4"/>
      </g>
    </g>
    <g id="Group_5683" data-name="Group 5683" transform="translate(1160.55 344.417)">
      <g id="Group_5681" data-name="Group 5681" transform="translate(0.405 0.388)">
        <path id="Path_2566" data-name="Path 2566" d="M1166.4,395.478a4.641,4.641,0,1,0-.354,9.276q.177.014.354.014a4.963,4.963,0,0,0,2.638-.747,4.589,4.589,0,0,0,2.215-3.9A4.753,4.753,0,0,0,1166.4,395.478Zm0,7.188a2.6,2.6,0,1,1,2.711-2.59A2.652,2.652,0,0,1,1166.4,402.666Z" transform="translate(-1161.549 -395.478)" fill="#4285f4"/>
      </g>
      <g id="Group_5682" data-name="Group 5682" transform="translate(0 0)">
        <path id="Path_2567" data-name="Path 2567" d="M1165.807,404.544c-.129,0-.258-.005-.388-.016a5.045,5.045,0,1,1,5.646-5.017,4.959,4.959,0,0,1-2.4,4.223A5.4,5.4,0,0,1,1165.807,404.544Zm0-9.29a4.254,4.254,0,1,0-.325,8.5c.112.009.219.013.325.013a4.556,4.556,0,0,0,2.416-.685,4.193,4.193,0,0,0,2.031-3.572A4.36,4.36,0,0,0,1165.807,395.254Zm0,7.188a2.984,2.984,0,1,1,3.117-2.978A3.051,3.051,0,0,1,1165.807,402.442Zm0-5.185a2.207,2.207,0,1,0,2.306,2.207A2.258,2.258,0,0,0,1165.807,397.257Z" transform="translate(-1160.55 -394.478)" fill="#4285f4"/>
      </g>
    </g>
    <g id="Group_5685" data-name="Group 5685" transform="translate(1179.597 337.787)">
      <g id="Group_5684" data-name="Group 5684" transform="translate(0)">
        <path id="Path_2568" data-name="Path 2568" d="M1227.054,377.648a.927.927,0,0,0-1.282,0l-9.759,9.337a2.949,2.949,0,0,0-2.313,0l-4.622-4.424a.936.936,0,0,0-1.282.024.837.837,0,0,0,0,1.208l4.607,4.414a2.557,2.557,0,0,0,1.282,3.469,2.817,2.817,0,0,0,3.1-.507,2.5,2.5,0,0,0,.525-2.962l9.744-9.332A.834.834,0,0,0,1227.054,377.648ZM1215.5,389.937a.955.955,0,0,1-1.282,0,.841.841,0,0,1,0-1.227.926.926,0,0,1,1.282,0A.834.834,0,0,1,1215.5,389.937Z" transform="translate(-1207.538 -377.391)" fill="#4285f4" stroke="#4285f4" stroke-miterlimit="10" stroke-width="2"/>
      </g>
    </g>
    <g id="Group_5688" data-name="Group 5688" transform="translate(1203.037 343.307)">
      <g id="Group_5686" data-name="Group 5686" transform="translate(0.405 0.388)">
        <rect id="Rectangle_2790" data-name="Rectangle 2790" width="2.569" height="5.92" rx="1.284" transform="translate(0 2.569) rotate(-90)" fill="#4285f4"/>
      </g>
      <g id="Group_5687" data-name="Group 5687" transform="translate(0 0)">
        <path id="Path_2569" data-name="Path 2569" d="M1270.448,394.963h-3.438a1.614,1.614,0,0,1-1.646-1.576v-.193a1.614,1.614,0,0,1,1.646-1.576h3.438a1.614,1.614,0,0,1,1.646,1.576v.193A1.614,1.614,0,0,1,1270.448,394.963Zm-3.438-2.569a.819.819,0,0,0-.836.8v.193a.819.819,0,0,0,.836.8h3.438a.819.819,0,0,0,.835-.8v-.193a.819.819,0,0,0-.835-.8Z" transform="translate(-1265.363 -391.618)" fill="#4285f4"/>
      </g>
    </g>
    <g id="Group_5691" data-name="Group 5691" transform="translate(1185.991 360.429)">
      <g id="Group_5689" data-name="Group 5689" transform="translate(0.405 0.388)">
        <rect id="Rectangle_2791" data-name="Rectangle 2791" width="2.684" height="5.667" rx="1.342" fill="#4285f4"/>
      </g>
      <g id="Group_5690" data-name="Group 5690" transform="translate(0)">
        <path id="Path_2570" data-name="Path 2570" d="M1225.16,442.19h-.2a1.614,1.614,0,0,1-1.646-1.576v-3.291a1.614,1.614,0,0,1,1.646-1.576h.2a1.614,1.614,0,0,1,1.646,1.576v3.291A1.614,1.614,0,0,1,1225.16,442.19Zm-.2-5.667a.819.819,0,0,0-.835.8v3.291a.819.819,0,0,0,.835.8h.2a.819.819,0,0,0,.835-.8v-3.291a.819.819,0,0,0-.835-.8Z" transform="translate(-1223.312 -435.747)" fill="#4285f4"/>
      </g>
    </g>
  </g>
</svg>
