<svg xmlns="http://www.w3.org/2000/svg" viewBox="0 0 18.048 18.044" class="text-gray-400 hover:text-[#e1306c]"><defs></defs> <path fill="currentColor" d="M9.026 4.395a4.626 4.626 0 104.626 4.626 4.619 4.619 0 00-4.626-4.626zm0 7.634a3.008 3.008 0 113.008-3.008 3.013 3.013 0 01-3.008 3.008zm5.895-7.823a1.079 1.079 0 11-1.079-1.079 1.077 1.077 0 011.078 1.079zm3.064 1.1a5.34 5.34 0 00-1.458-3.781A5.375 5.375 0 0012.746.062c-1.49-.085-5.955-.085-7.445 0a5.367 5.367 0 00-3.78 1.455 5.357 5.357 0 00-1.458 3.78c-.085 1.49-.085 5.955 0 7.445a5.34 5.34 0 001.458 3.781 5.382 5.382 0 003.784 1.457c1.49.085 5.955.085 7.445 0a5.34 5.34 0 003.781-1.458 5.375 5.375 0 001.458-3.781c.085-1.49.085-5.951 0-7.441zm-1.925 9.039a3.045 3.045 0 01-1.715 1.715c-1.188.471-4.006.362-5.319.362s-4.135.1-5.319-.362a3.045 3.045 0 01-1.715-1.715c-.471-1.188-.362-4.006-.362-5.319s-.1-4.135.362-5.319a3.045 3.045 0 011.713-1.719c1.188-.471 4.006-.362 5.319-.362s4.135-.1 5.319.362a3.045 3.045 0 011.715 1.715c.471 1.188.362 4.006.362 5.319s.111 4.135-.36 5.318z" data-name="Icon awesome-instagram"></path></svg>