<svg xmlns="http://www.w3.org/2000/svg" viewBox="0 0 23.58 16.58" class="text-gray-400 hover:text-red-500"><defs></defs> <path fill="currentColor" d="M23.087 2.594A2.963 2.963 0 0021.002.5C19.163 0 11.79 0 11.79 0S4.416 0 2.578.5A2.963 2.963 0 00.493 2.6 31.081 31.081 0 000 8.312a31.081 31.081 0 00.493 5.712 2.919 2.919 0 002.085 2.065c1.839.5 9.212.5 9.212.5s7.374 0 9.212-.5a2.919 2.919 0 002.085-2.065 31.081 31.081 0 00.493-5.712 31.081 31.081 0 00-.493-5.712zM9.378 11.813V4.8l6.163 3.506-6.163 3.506z" data-name="Icon awesome-youtube"></path></svg>