<svg xmlns="http://www.w3.org/2000/svg" width="25" height="25" data-v-896c7642=""><g data-name="Group 24546" data-v-896c7642=""><path data-name="Rectangle 24542" fill="#fff" d="M0 0h25v25H0z" data-v-896c7642=""></path> <g data-name="life-insurance (1)" transform="translate(-2 -2)" data-v-896c7642=""><path data-name="Path 25320" d="M22.902 19.213h.63a2.959 2.959 0 0 0 2.649-1.64 1.636 1.636 0 0 1-1.381-.754l-.259-1.185v-1.339a2.869 2.869 0 0 0-5.738 0v1.339l-.258 1.185a1.639 1.639 0 0 1-1.381.755 2.959 2.959 0 0 0 2.648 1.639Z" fill="#e59a48" data-v-896c7642=""></path> <path data-name="Path 25321" d="m24.8 16.819-.258-1.185v-1.339a2.869 2.869 0 0 0-5.727-.2 7.777 7.777 0 0 0 6.762 4.293 2.938 2.938 0 0 0 .6-.81 1.636 1.636 0 0 1-1.377-.759Z" fill="#ffbb61" data-v-896c7642=""></path> <path data-name="Path 25322" d="M26.59 27v-4.918a1.892 1.892 0 0 0-1.123-1.729l-2.565-1.14v-.82h-2.459v.82l-2.565 1.14a1.892 1.892 0 0 0-1.124 1.729V27Z" fill="#039147" data-v-896c7642=""></path> <path data-name="Path 25323" d="M26.59 22.082a1.891 1.891 0 0 0-1.124-1.729l-2.565-1.14v-.82h-2.458v.82l-2.569 1.14c-.032.014-.061.034-.093.05a1.885 1.885 0 0 0-.211.859 4.918 4.918 0 0 0 4.918 4.918h4.1Z" fill="#12af55" data-v-896c7642=""></path> <path data-name="Path 25324" d="M21.673 22.082c1.711 0 3.15-.779 3.566-1.83l-2.332-1.039v-.82h-2.464v.82l-2.336 1.039c.416 1.053 1.855 1.83 3.566 1.83Z" fill="#f4b3b3" data-v-896c7642=""></path> <path data-name="Path 25325" d="M22.907 19.213v-.335a2.422 2.422 0 0 1-2.459 0v.335l-2.341 1.039c.416 1.053 1.855 1.83 3.566 1.83s3.15-.779 3.566-1.83Z" fill="#fcd2d2" data-v-896c7642=""></path> <path data-name="Path 25326" d="M19.622 15.525h-.41a.82.82 0 0 0 0 1.639h.451" fill="#efa0a0" data-v-896c7642=""></path> <path data-name="Path 25327" d="M23.721 15.525h.41a.82.82 0 0 1 0 1.639h-.451" fill="#efa0a0" data-v-896c7642=""></path> <path data-name="Path 25328" d="M19.213 27h-.82v-1.89a1.8 1.8 0 0 1-.409-1.149v-.07a1.8 1.8 0 0 1 .53-1.28l.41-.41.579.58-.41.41a.984.984 0 0 0-.29.7v.07a.981.981 0 0 0 .29.7.41.41 0 0 1 .12.29Z" fill="#00753a" data-v-896c7642=""></path> <path data-name="Path 25329" d="M24.948 27h-.82v-2.05a.41.41 0 0 1 .12-.29.981.981 0 0 0 .29-.7v-.07a.981.981 0 0 0-.29-.7l-.41-.41.58-.58.41.41a1.8 1.8 0 0 1 .53 1.279v.07a1.8 1.8 0 0 1-.41 1.149Z" fill="#00753a" data-v-896c7642=""></path> <path data-name="Path 25330" d="M6.098 18.41v.8a1.23 1.23 0 0 0 2.459 0v-.817Z" fill="#f4b3b3" data-v-896c7642=""></path> <path data-name="Path 25331" d="M12.656 27v-4.918a1.816 1.816 0 0 0-1.141-1.686l-2.958-1.183H6.1l-2.959 1.183A1.816 1.816 0 0 0 2 22.082V27Z" fill="#2a78e9" data-v-896c7642=""></path> <path data-name="Path 25332" d="M12.656 22.082a1.816 1.816 0 0 0-1.141-1.686l-2.957-1.183H6.099l-2.957 1.183c-.047.019-.09.044-.135.066a1.812 1.812 0 0 0-.187.8 4.918 4.918 0 0 0 4.918 4.918h4.918Z" fill="#4b97f3" data-v-896c7642=""></path> <path data-name="Path 25333" d="M3.639 23.311h.82V27h-.82Z" fill="#114998" data-v-896c7642=""></path> <path data-name="Path 25334" d="M4.459 24.92v-1.609h-.82v.667a4.925 4.925 0 0 0 .82.942Z" fill="#2a78e9" data-v-896c7642=""></path> <path data-name="Path 25335" d="M10.197 23.311h.82v2.869h-.82Z" fill="#2a78e9" data-v-896c7642=""></path> <path data-name="Path 25336" d="M4.459 15.634v-2.569a1.639 1.639 0 0 1 1.639-1.639h1.639a1.23 1.23 0 0 1 1.23 1.23 1.23 1.23 0 0 1 1.23 1.23v1.75" fill="#603813" data-v-896c7642=""></path> <path data-name="Path 25337" d="M10.197 13.885a1.23 1.23 0 0 0-1.23-1.23 1.23 1.23 0 0 0-1.229-1.229H6.099a1.623 1.623 0 0 0-.672.148 1.623 1.623 0 0 0-.148.672 2.569 2.569 0 0 0 2.569 2.569h2.349Z" fill="#70492a" data-v-896c7642=""></path> <path data-name="Path 25338" d="M5.279 15.525h-.41a.82.82 0 0 0 0 1.639h.45" fill="#efa0a0" data-v-896c7642=""></path> <path data-name="Path 25339" d="M9.377 15.525h.41a.82.82 0 0 1 0 1.639h-.451" fill="#efa0a0" data-v-896c7642=""></path> <path data-name="Path 25340" d="M9.379 15.114v1.639a2.05 2.05 0 0 1-4.1 0v-1.639h1.163a1.8 1.8 0 0 0 1.706-1.229Z" fill="#f4b3b3" data-v-896c7642=""></path> <path data-name="Path 25341" d="M6.098 18.961v.252a1.23 1.23 0 0 0 2.459 0v-.252a3.129 3.129 0 0 1-2.459 0Z" fill="#fcd2d2" data-v-896c7642=""></path> <path data-name="Path 25342" d="M10.197 23.311h.82V27h-.82Z" fill="#114998" data-v-896c7642=""></path> <path data-name="Path 25343" d="M6.442 15.524H5.279v1.23a2.05 2.05 0 0 0 4.1 0v-1.23l-1.231-1.229a1.8 1.8 0 0 1-1.706 1.229Z" fill="#fcd2d2" data-v-896c7642=""></path> <path data-name="Path 25344" d="M10.607 27v-2.049a2.459 2.459 0 0 1 2.459-2.459h2.459a2.459 2.459 0 0 1 2.459 2.459V27Z" fill="#ff5252" data-v-896c7642=""></path> <path data-name="Path 25345" d="M17.983 24.951a2.459 2.459 0 0 0-2.457-2.459h-2.461a2.446 2.446 0 0 0-1.278.361 2.446 2.446 0 0 0-.361 1.278 2.049 2.049 0 0 0 2.049 2.049h4.508Z" fill="#f96b6b" data-v-896c7642=""></path> <path data-name="Path 25346" d="M13.066 22.082v.41a1.23 1.23 0 0 0 2.459 0v-.41Z" fill="#f4b3b3" data-v-896c7642=""></path> <path data-name="Path 25347" d="M13.079 22.627a1.223 1.223 0 0 0 2.432 0 2.828 2.828 0 0 1-2.432 0Z" fill="#fcd2d2" data-v-896c7642=""></path> <path data-name="Path 25348" d="M13.475 7.836v4a.82.82 0 1 0 1.639 0v-4" fill="#b3b3b3" data-v-896c7642=""></path> <path data-name="Path 25349" d="M14.295 12.656a.82.82 0 0 0 .82-.82v-4h-.82Z" fill="#e6e6e6" data-v-896c7642=""></path> <path data-name="Path 25350" d="M4.049 8.557A10.105 10.105 0 0 1 13.511 2h1.568a10.105 10.105 0 0 1 9.462 6.557h-.572a2.761 2.761 0 0 0-2.3 1.23l-.906-.453a3.474 3.474 0 0 0-3.106 0l-.906.453-.902-.453a3.474 3.474 0 0 0-3.106 0l-.906.453-.906-.453a3.474 3.474 0 0 0-3.106 0l-.906.453a2.761 2.761 0 0 0-2.3-1.23Z" fill="#114998" data-v-896c7642=""></path> <path data-name="Path 25351" d="m6.914 8.148.906-.453a3.474 3.474 0 0 1 3.106 0l.906.453.906-.453a3.474 3.474 0 0 1 3.106 0l.906.453.906-.453a3.474 3.474 0 0 1 3.106 0l.906.453a2.758 2.758 0 0 1 2.08-1.216A10.1 10.1 0 0 0 15.079 2h-1.565a10.1 10.1 0 0 0-8.676 4.932 2.758 2.758 0 0 1 2.076 1.216Z" fill="#4b97f3" data-v-896c7642=""></path> <path data-name="Path 25352" d="M14.459 2.041 14.34 2a12.3 12.3 0 0 1 2.459 7.377v.41l.906-.451a3.47 3.47 0 0 1 3.106 0l.906.451a11.612 11.612 0 0 0-7.258-7.746Z" fill="#2a78e9" data-v-896c7642=""></path> <path data-name="Path 25353" d="m14.34 2-.118.041a11.612 11.612 0 0 0-7.259 7.746l.906-.451a3.455 3.455 0 0 1 3.107 0l.905.451v-.41A12.3 12.3 0 0 1 14.34 2Z" fill="#2a78e9" data-v-896c7642=""></path> <path data-name="Path 25354" d="M14.459 2.041 14.34 2a12.292 12.292 0 0 1 2.391 6.134l.026.013.906-.453a3.474 3.474 0 0 1 3.106 0l.166.082a11.609 11.609 0 0 0-6.476-5.735Z" fill="#a2c4ed" data-v-896c7642=""></path> <path data-name="Path 25355" d="M14.222 2.041a11.61 11.61 0 0 0-6.443 5.676l.045-.023a3.474 3.474 0 0 1 3.106 0l.907.453.123-.061A12.291 12.291 0 0 1 14.34 2Z" fill="#a2c4ed" data-v-896c7642=""></path> <rect data-name="Rectangle 24553" width="3" height="3" rx="1.5" transform="translate(12 18)" fill="#f4b3b3" data-v-896c7642=""></rect> <path data-name="Path 25356" d="M12.246 24.951h.82V27h-.82Z" fill="#d64343" data-v-896c7642=""></path> <path data-name="Path 25357" d="M15.934 24.951h.82V27h-.82Z" fill="#d64343" data-v-896c7642=""></path> <path data-name="Path 25358" d="M13.066 26.14v-1.189h-.82v.81a2.025 2.025 0 0 0 .82.379Z" fill="#ff5252" data-v-896c7642=""></path> <path data-name="Path 25359" d="M15.934 24.951h.82v1.23h-.82Z" fill="#ff5252" data-v-896c7642=""></path> <path data-name="Path 25360" d="M21.672 11.426a2.875 2.875 0 0 0-.41.033v3.656h.82v-3.656a2.875 2.875 0 0 0-.41-.033Z" fill="#e59a48" data-v-896c7642=""></path> <path data-name="Path 25361" d="M23.723 15.115v1.639a2.05 2.05 0 0 1-4.1 0v-1.639h.343a1.8 1.8 0 0 0 1.706-1.23 1.8 1.8 0 0 0 1.705 1.229Z" fill="#f4b3b3" data-v-896c7642=""></path> <g data-name="Group 24133" fill="#fcd2d2" data-v-896c7642=""><path data-name="Path 25362" d="M21.672 14.295a1.8 1.8 0 0 1-1.706 1.229h-.343v1.23a2.05 2.05 0 0 0 4.1 0v-1.23h-.344a1.8 1.8 0 0 1-1.707-1.229Z" data-v-896c7642=""></path> <path data-name="Path 25363" d="M14.295 17.984a2.049 2.049 0 0 0-2.049 2.049v.41a2.05 2.05 0 1 0 4.1 0v-.41a2.049 2.049 0 0 0-2.051-2.049Z" data-v-896c7642=""></path></g></g></g></svg>