<svg id="Layer_1" version="1.1" xmlns="http://www.w3.org/2000/svg" x="0" y="0" viewBox="0 0 181.3 48.5" xml:space="preserve" style="enable-background:new 0 0 181.3 48.5"><path d="M65.3 38.4v5.5H65v-2.7h-3.2v2.7h-.4v-5.5h.4V41H65v-2.5l.3-.1zM70.4 41.9h-3.7c0 .4.1.7.2 1 .2.3.4.5.6.6.3.1.5.2.8.2.4 0 .8-.1 1-.3.3-.2.5-.5.5-.8h.4c-.1.4-.3.8-.6 1.1-.3.3-.8.4-1.3.4-.4 0-.8-.1-1.1-.3-.3-.2-.6-.4-.7-.8-.2-.3-.3-.7-.3-1.2 0-.4.1-.8.3-1.2.2-.3.4-.6.7-.8.3-.2.7-.3 1.1-.3.4 0 .8.1 1.1.3.3.2.5.4.7.7.2.3.2.6.2.9.1.3.1.5.1.5zm-.6-1.2c-.1-.3-.4-.5-.6-.6-.3-.1-.5-.2-.8-.2s-.6.1-.8.2c-.3.1-.5.3-.6.6-.2.3-.2.6-.3 1H70c.1-.4 0-.7-.2-1zM71.5 40.7c.2-.3.4-.6.7-.8.3-.2.7-.3 1.1-.3.4 0 .8.1 1.1.3.3.2.5.5.7.8v-1.1h.4v4.3H75v-1.1c-.1.3-.3.6-.7.9-.3.2-.7.3-1.1.3-.4 0-.8-.1-1.1-.3-.3-.2-.6-.4-.7-.8-.2-.3-.3-.7-.3-1.2.1-.3.2-.7.4-1zm3.3.1c-.2-.3-.4-.5-.6-.7-.3-.2-.6-.2-.9-.2-.3 0-.6.1-.9.2-.3.1-.5.4-.6.6-.1.3-.2.6-.2 1s.1.7.2 1c.1.3.4.5.6.6.3.2.6.2.9.2.3 0 .6-.1.9-.2.3-.2.5-.4.6-.7.2-.3.2-.6.2-1 0-.2 0-.5-.2-.8zM77 38.1v5.8h-.4v-5.8h.4zM78.8 40v2.8c0 .3.1.5.2.6.1.1.3.2.6.2h.4v.3h-.5c-.4 0-.6-.1-.8-.3-.2-.2-.3-.5-.3-.9V40h-.6v-.3h.6v-1.1h.4v1.1H80v.3h-1.2zM84.1 40.1c.3.3.5.8.5 1.4V44h-.3v-2.5c0-.5-.1-.9-.4-1.2s-.6-.4-1-.4c-.5 0-.8.1-1.1.4-.3.3-.4.7-.4 1.3v2.3H81v-5.8h.4v2.4c.1-.3.3-.6.6-.7.3-.2.6-.3 1-.3.4.1.8.3 1.1.6zM85.8 40.6c.2-.3.4-.6.7-.8.3-.2.7-.3 1.1-.3.5 0 1 .1 1.3.4.3.3.6.6.6 1.1h-.4c-.1-.4-.2-.7-.5-.9s-.6-.3-1.1-.3c-.3 0-.6.1-.9.2-.3.1-.5.3-.6.6s-.2.6-.2 1 .1.8.2 1c.2.3.4.5.6.6.3.1.5.2.9.2s.8-.1 1.1-.3c.3-.2.5-.5.5-.9h.4c-.1.4-.3.8-.6 1.1-.3.3-.8.4-1.3.4-.4 0-.8-.1-1.1-.3-.3-.2-.6-.4-.7-.8-.2-.3-.3-.7-.3-1.2.1 0 .1-.4.3-.8zM90.6 40.7c.2-.3.4-.6.7-.8.3-.2.7-.3 1.1-.3.4 0 .8.1 1.1.3s.5.5.7.8v-1.1h.4v4.3h-.4v-1.1c-.1.3-.3.6-.7.9-.3.2-.7.3-1.1.3-.4 0-.8-.1-1.1-.3-.3-.2-.6-.4-.7-.8-.2-.3-.3-.7-.3-1.2.1-.3.2-.7.3-1zm3.4.1c-.2-.3-.4-.5-.6-.7-.3-.2-.6-.2-.9-.2-.3 0-.6.1-.9.2-.3.1-.5.4-.6.6-.1.3-.2.6-.2 1s.1.7.2 1c.1.3.4.5.6.6.3.2.6.2.9.2.3 0 .6-.1.9-.2.3-.2.5-.4.6-.7.2-.3.2-.6.2-1 0-.2 0-.5-.2-.8zM96.7 39.8c.3-.2.6-.2 1-.2v.4h-.1c-.4 0-.8.1-1 .4-.3.2-.4.6-.4 1.2v2.5h-.4v-4.3h.4v.9c.1-.5.3-.7.5-.9zM102.3 41.9h-3.7c0 .4.1.7.2 1 .2.3.4.5.6.6.3.1.5.2.8.2.4 0 .8-.1 1-.3.3-.2.5-.5.5-.8h.4c-.1.4-.3.8-.6 1.1s-.8.4-1.3.4c-.4 0-.8-.1-1.1-.3-.3-.2-.6-.4-.7-.8-.2-.3-.3-.7-.3-1.2 0-.4.1-.8.3-1.2.2-.3.4-.6.7-.8.3-.2.7-.3 1.1-.3.4 0 .8.1 1.1.3.3.2.5.4.7.7.2.3.2.6.2.9.2.3.2.5.1.5zm-.5-1.2c-.1-.3-.4-.5-.6-.6-.3-.1-.5-.2-.8-.2-.3 0-.6.1-.8.2-.3.1-.5.3-.6.6-.2.3-.2.6-.3 1h3.3c0-.4 0-.7-.2-1zM108.7 42.5h-2.6l-.5 1.4h-.4l2-5.4h.4l2 5.4h-.4l-.5-1.4zm-.1-.3-1.2-3.2-1.2 3.2h2.4zM113.6 40.1c.3.3.5.8.5 1.4V44h-.3v-2.5c0-.5-.1-.9-.4-1.2s-.6-.4-1-.4c-.5 0-.8.1-1.1.4-.3.3-.4.7-.4 1.3v2.3h-.4v-4.3h.4v.9c.1-.3.3-.6.6-.7.3-.2.6-.3 1-.3.4.1.8.3 1.1.6zM118.6 39.7l-2.5 6.2h-.4l.8-2-1.8-4.3h.4l1.6 3.9 1.5-3.9h.4v.1zM119.9 40v2.8c0 .3.1.5.2.6.1.1.3.2.6.2h.5v.3h-.5c-.4 0-.6-.1-.8-.3-.2-.2-.3-.5-.3-.9V40h-.6v-.3h.6v-1.1h.4v1.1h1.3v.3h-1.4zM122 38.7c-.1-.1-.1-.1-.1-.2s0-.2.1-.2c.1-.1.1-.1.2-.1s.2 0 .2.1c.1.1.1.1.1.2s0 .2-.1.2-.1.1-.2.1c-.1-.1-.2-.1-.2-.1zm.4 1V44h-.4v-4.3h.4zM129.8 40.1c.3.3.5.8.5 1.4V44h-.3v-2.5c0-.5-.1-.9-.4-1.2-.2-.3-.6-.4-1-.4s-.8.2-1.1.5-.4.7-.4 1.3V44h-.3v-2.5c0-.5-.1-.9-.4-1.2-.2-.3-.6-.4-1-.4s-.8.2-1.1.5-.4.7-.4 1.3V44h-.4v-4.3h.4v.9c.1-.3.3-.6.6-.8.3-.2.6-.3.9-.3.4 0 .7.1 1 .3.3.2.5.5.6.9.1-.4.3-.7.6-.9.3-.2.6-.3 1-.3.5.1.9.3 1.2.6zM135.3 41.9h-3.7c0 .4.1.7.2 1 .2.3.4.5.6.6.3.1.5.2.8.2.4 0 .8-.1 1-.3.3-.2.5-.5.5-.8h.4c-.1.4-.3.8-.6 1.1s-.8.4-1.3.4c-.4 0-.8-.1-1.1-.3-.3-.2-.6-.4-.7-.8-.2-.3-.3-.7-.3-1.2 0-.4.1-.8.3-1.2.2-.3.4-.6.7-.8.3-.2.7-.3 1.1-.3.4 0 .8.1 1.1.3.3.2.5.4.7.7.2.3.2.6.2.9.1.3.1.5.1.5zm-.5-1.2c-.1-.3-.4-.5-.6-.6-.3-.1-.5-.2-.8-.2-.3 0-.6.1-.8.2-.3.1-.5.3-.6.6-.2.3-.2.6-.3 1h3.3c0-.4-.1-.7-.2-1zM141.7 42.5h-2.6l-.5 1.4h-.4l2-5.4h.4l2 5.4h-.4l-.5-1.4zm-.2-.3-1.2-3.2-1.2 3.2h2.4zM146.6 40.1c.3.3.5.8.5 1.4V44h-.3v-2.5c0-.5-.1-.9-.4-1.2s-.6-.4-1-.4c-.5 0-.8.1-1.1.4-.3.3-.4.7-.4 1.3v2.3h-.4v-4.3h.4v.9c.1-.3.3-.6.6-.7.3-.2.6-.3 1-.3.3.1.8.3 1.1.6zM151.6 39.7l-2.5 6.2h-.4l.8-2-1.8-4.3h.4l1.6 3.9 1.5-3.9h.4v.1zM157.9 39.7l-1.3 4.3h-.3l-1.4-3.8-1.4 3.8h-.3l-1.3-4.3h.4l1.1 3.9 1.4-3.9h.3l1.4 3.8 1.1-3.8h.3zM161.8 40.1c.3.3.5.8.5 1.4V44h-.3v-2.5c0-.5-.1-.9-.4-1.2-.3-.3-.6-.4-1-.4-.5 0-.8.1-1.1.4-.3.3-.4.7-.4 1.3v2.3h-.4v-5.8h.4v2.4c.1-.3.3-.6.6-.7.3-.2.6-.3 1-.3.3.1.8.3 1.1.6zM167.3 41.9h-3.7c0 .4.1.7.2 1 .2.3.4.5.6.6.3.1.5.2.8.2.4 0 .8-.1 1-.3.3-.2.5-.5.5-.8h.4c-.1.4-.3.8-.6 1.1s-.8.4-1.3.4c-.4 0-.8-.1-1.1-.3-.3-.2-.6-.4-.7-.8-.2-.3-.3-.7-.3-1.2 0-.4.1-.8.3-1.2.2-.3.4-.6.7-.8.3-.2.7-.3 1.1-.3.4 0 .8.1 1.1.3.3.2.5.4.7.7.2.3.2.6.2.9.1.3.1.5.1.5zm-.6-1.2c-.1-.3-.4-.5-.6-.6-.3-.1-.5-.2-.8-.2s-.6.1-.8.2c-.3.1-.5.3-.6.6-.2.3-.2.6-.3 1h3.3c0-.4 0-.7-.2-1zM169.2 39.8c.3-.2.6-.2 1-.2v.4h-.1c-.4 0-.8.1-1 .4-.3.2-.4.6-.4 1.2v2.5h-.4v-4.3h.4v.9c.1-.5.3-.7.5-.9zM174.8 41.9h-3.7c0 .4.1.7.2 1 .2.3.4.5.6.6.3.1.5.2.8.2.4 0 .8-.1 1-.3.3-.2.5-.5.5-.8h.4c-.1.4-.3.8-.6 1.1s-.8.4-1.3.4c-.4 0-.8-.1-1.1-.3-.3-.2-.6-.4-.7-.8-.2-.3-.3-.7-.3-1.2 0-.4.1-.8.3-1.2.2-.3.4-.6.7-.8.3-.2.7-.3 1.1-.3.4 0 .8.1 1.1.3.3.2.5.4.7.7s.2.6.2.9c.1.3.1.5.1.5zm-.5-1.2c-.1-.3-.4-.5-.6-.6-.3-.1-.5-.2-.8-.2s-.6.1-.8.2c-.3.1-.5.3-.6.6-.2.3-.2.6-.3 1h3.3c0-.4-.1-.7-.2-1z" class="fill-light-gray"></path><g><path d="M.5 4.2c0-1.4 1.4-2.5 2.8-2.5h39.5c1 0 2.2 0 3.1.8 1.1 1 .8 2.3.9 3.7v13.5l-.1 23.8v1.7c0 2.1-2 2.9-3.8 2.8-.9 0-1.9-.1-2.8-.1H3.7c-1 0-2-.2-2.7-1.1-.7-.9-.6-2.2-.6-3.3.1-1.3 0-2.7 0-4V20.6c.1.1.1-16.4.1-16.4z" class="fill-blue-500"></path> <path d="M26.6 14.1c0-.1-.1-.3-.1-.4-.4-1.4-1.5-2.7-3-3.8-.3-.2-.6-.2-.8-.2-2.6-1.6-5.9-2.4-8.4-2.2-3.9.4-4.1 2.1-4.5 5.1-.3.2-.6.6-.5 1 .1.6.6 1 1.2 1 .6-.1 1-.6 1-1.2 0-.3-.1-.5-.3-.6.4-2.9.5-3.6 3.3-3.9 2.2-.2 5.2.6 7.5 2 0 .3.2.5.4.7 1 .7 2.2 1.9 2.4 3.5.1 1.5-.9 2.9-1.7 3.8-.2.2-.3.5-.3.8-2 1.8-4.8 3.1-7 3.3-2.8.3-3-.5-3.9-3.2.1-.2.2-.4.2-.7-.1-.6-.6-1-1.2-1-.6.1-1 .6-1 1.2 0 .4.3.8.7.9.9 2.8 1.5 4.5 5.3 4.1 2.5-.2 5.7-1.7 7.9-3.7.3 0 .6-.1.8-.3 1.4-1.5 2.2-3 2.3-4.6v-.2l-.3-1.4z" class="fill-white"></path> <path d="M26.5 13.7c-.2 0-.3 0-.5-.1l-1 1.9c.6 0 1.1.1 1.7.2 5.6 1 9.9 5.6 10.3 11.4v1.6c-.3 6.2-5.1 11.1-11.2 11.8-.4 0-.8.1-1.3.1h-.4c-4.9-.1-9.1-3.1-11-7.3-.1-.2-.2-.5-.3-.7-.3.1-.5.1-.8.1h-1.2c.1.4.3.7.4 1.1 2.2 5 7.2 8.5 13.1 8.5 7.9 0 14.3-6.4 14.3-14.3.1-7.4-5.2-13.3-12.1-14.3z" class="fill-white"></path> <path d="M11.6 27.7c-1.6 0-3 1.3-3 3 0 1.6 1.2 2.9 2.8 3h.2c.6 0 1.1-.2 1.6-.5.8-.5 1.4-1.4 1.4-2.5-.1-1.6-1.4-3-3-3zm0 4.6c-.9 0-1.7-.7-1.7-1.7 0-.9.7-1.7 1.7-1.7.9 0 1.7.7 1.7 1.7-.1 1-.8 1.7-1.7 1.7zM31.9 23.4c-.2-.2-.6-.2-.8 0l-6 6c-.5-.2-1-.2-1.4 0l-2.8-2.8c-.2-.2-.6-.2-.8 0-.2.2-.2.6 0 .8l2.8 2.8c-.4.8 0 1.8.8 2.2.6.3 1.4.2 1.9-.3s.6-1.3.3-1.9l6-6c.3-.2.3-.6 0-.8zm-7 7.9c-.2.2-.6.2-.8 0-.2-.2-.2-.6 0-.8.2-.2.6-.2.8 0 .2.2.2.6 0 .8zM38.2 27.1v1.6h-3.6v-1.6h3.6c0-.1 0-.1 0 0zM25.8 41.6h-1.6V38h1.6v3.6z" class="fill-white"></path> <g><g><path d="M58.5 5.6h7c1.6 0 3.1.2 4.4.8 1.3.5 2.4 1.2 3.4 2.1.9.9 1.6 2 2.1 3.3.5 1.3.7 2.7.7 4.2s-.2 3-.7 4.2c-.5 1.3-1.2 2.4-2.1 3.3-.9.9-2 1.6-3.4 2.1-1.3.5-2.8.8-4.4.8h-7V5.6zm6.8 17c1.1 0 2.1-.2 3-.5.9-.3 1.6-.8 2.2-1.3.6-.6 1-1.3 1.3-2.1.3-.8.4-1.7.4-2.7s-.1-1.9-.4-2.7-.7-1.5-1.3-2.1c-.6-.6-1.3-1-2.2-1.3-.9-.3-1.9-.5-3-.5h-2.9v13.3h2.9zM85.1 11.7c1.1 0 2.1.2 3 .6.9.4 1.7.9 2.4 1.6s1.2 1.5 1.6 2.4c.4.9.6 1.9.6 3s-.2 2.1-.6 3c-.4.9-.9 1.7-1.6 2.4-.7.7-1.5 1.2-2.4 1.6-.9.4-1.9.6-3 .6s-2.1-.2-3-.6-1.7-.9-2.4-1.6c-.7-.7-1.2-1.5-1.6-2.4-.4-.9-.6-1.9-.6-3s.2-2.1.6-3c.4-.9.9-1.7 1.6-2.4s1.5-1.2 2.4-1.6c.9-.5 1.9-.6 3-.6zm0 11.6c.5 0 1-.1 1.4-.3.5-.2.9-.4 1.2-.8.3-.3.6-.8.8-1.3.2-.5.3-1.1.3-1.7 0-.6-.1-1.2-.3-1.7-.2-.5-.5-.9-.8-1.3-.3-.3-.7-.6-1.2-.8-.5-.2-.9-.3-1.4-.3-.5 0-1 .1-1.4.3-.4.2-.8.4-1.2.8-.3.3-.6.8-.8 1.3-.2.5-.3 1.1-.3 1.7 0 .6.1 1.2.3 1.7.2.5.5.9.8 1.3s.7.6 1.2.8c.4.2.9.3 1.4.3zM108.5 22.7c-.6 1.2-1.5 2.2-2.6 2.9-1.1.8-2.5 1.1-4.2 1.1-1.1 0-2.1-.2-3-.6-.9-.4-1.7-.9-2.4-1.6s-1.2-1.5-1.6-2.4c-.4-.9-.6-1.9-.6-3s.2-2.1.6-3c.4-.9.9-1.7 1.6-2.4.7-.7 1.5-1.2 2.4-1.6.9-.4 1.9-.6 3-.6 1.6 0 3 .4 4.1 1.1 1.1.8 1.9 1.7 2.5 2.9l-3.5 1.4c-.3-.7-.7-1.2-1.3-1.5-.5-.3-1.2-.5-1.9-.5-.5 0-1 .1-1.4.3-.4.2-.8.5-1.2.8-.3.3-.6.8-.8 1.3-.1.7-.2 1.3-.2 1.9 0 .6.1 1.2.3 1.7.2.5.5.9.8 1.3.3.3.7.6 1.2.8.4.2.9.3 1.4.3.8 0 1.5-.2 2-.5.6-.4 1-.9 1.3-1.5l3.5 1.4z" class="fill-blue-500"></path></g> <g class="fill-gray-900"><path d="M115.7 26.3v-17h-5.8V5.6h15.5v3.7h-5.8v17h-3.9zM128.9 10.2c-.3 0-.6-.1-.9-.2-.3-.1-.6-.3-.8-.5-.2-.2-.4-.5-.5-.8-.1-.3-.2-.6-.2-1 0-.3.1-.7.2-1 .1-.3.3-.5.5-.8.2-.2.5-.4.8-.5.3-.1.6-.2.9-.2.7 0 1.3.2 1.7.7.5.5.7 1 .7 1.7s-.2 1.2-.7 1.7c-.4.7-1 .9-1.7.9zm-1.8 16.1V12.1h3.8v14.2h-3.8zM134.3 12.1h3.6V14h.2c.4-.7 1-1.3 1.8-1.7.8-.4 1.6-.6 2.5-.6 1.1 0 2 .2 2.7.8s1.3 1.1 1.6 1.9c.4-.7 1.1-1.3 1.9-1.8.8-.5 1.8-.8 3-.8.9 0 1.6.1 2.3.4.6.3 1.2.7 1.6 1.2.4.5.7 1.1.9 1.8.2.7.3 1.5.3 2.3v8.9h-3.8V18c0-1.9-.8-2.9-2.4-2.9-.5 0-.9.1-1.3.3s-.7.5-1 .9c-.3.4-.5.8-.6 1.3-.1.5-.2 1.1-.2 1.7v6.9h-3.8V18c0-1.9-.8-2.9-2.5-2.9-.5 0-.9.1-1.3.3-.4.2-.7.5-.9.9-.2.4-.4.8-.6 1.3-.1.5-.2 1.1-.2 1.7v6.9h-3.8V12.1zM173.2 22.9c-.7 1.2-1.5 2.1-2.6 2.8-1.1.7-2.5 1.1-4.1 1.1-1.1 0-2.1-.2-3-.6s-1.7-.9-2.4-1.6c-.7-.7-1.2-1.5-1.6-2.4-.4-.9-.6-1.9-.6-3 0-1 .2-2 .6-2.9.4-.9.9-1.7 1.5-2.4.7-.7 1.4-1.2 2.3-1.6.9-.4 1.9-.6 3-.6s2.2.2 3 .6c.9.4 1.6.9 2.2 1.6.6.7 1 1.5 1.4 2.4.3.9.5 1.9.5 3V20.2h-10.7c.1.6.2 1.1.5 1.5.2.4.5.8.9 1 .4.3.7.5 1.2.6.4.1.9.2 1.3.2.9 0 1.6-.2 2.2-.6s1-.9 1.3-1.5l3.1 1.5zm-3.5-5.5c0-.2-.1-.5-.2-.8-.1-.3-.4-.6-.6-.9-.3-.3-.6-.5-1-.7-.4-.2-.9-.3-1.5-.3-.8 0-1.5.2-2.1.7-.6.5-1.1 1.1-1.3 1.9l6.7.1z"></path></g> <path d="M58.5 32.3h114.9v.4H58.5z" class="fill-gray-600"></path></g> <g><path d="M176.7 11.5v.4h-1V15h-.5v-3.1h-1v-.4h2.5zM180.9 11.5V15h-.5v-2.6l-1.2 2.6h-.3l-1.2-2.6V15h-.5v-3.5h.5l1.3 2.9 1.3-2.9h.6z"></path></g></g></svg>