<svg id="playstore_icon" version="1.1" width="100%" height="100%" xmlns="http://www.w3.org/2000/svg" x="0" y="0" viewBox="0 0 119.7 40" xml:space="preserve" style="enable-background:new 0 0 119.7 40"><style>.st1{fill:#fff}</style><path d="M110.1 0H7.5c-.7 0-1.3.1-2 .2-.6.1-1.3.3-1.9.6C3 1.1 2.5 1.5 2 2S1.1 3 .8 3.6C.5 4.2.3 4.9.2 5.5c-.1.7-.2 1.4-.2 2v24.9c0 .7.1 1.3.2 2s.3 1.3.6 1.9c.3.7.7 1.2 1.2 1.7s1 .9 1.6 1.2c.6.3 1.2.5 1.9.6.7.1 1.3.2 2 .2h104.6c.7 0 1.3-.1 2-.2s1.3-.3 1.9-.6c.6-.3 1.1-.7 1.6-1.2s.9-1 1.2-1.6c.3-.6.5-1.2.6-1.9.1-.7.2-1.3.2-2v-25c0-.7-.1-1.3-.2-2s-.3-1.3-.6-1.9c-.6-1.2-1.6-2.2-2.8-2.8-.6-.3-1.2-.5-1.9-.6-.7-.1-1.3-.2-2-.2h-2z" style="fill:#a6a6a6"></path><path d="M8.4 39.1h-.9c-.6 0-1.3-.1-1.9-.2-.6-.1-1.1-.3-1.7-.5-.5-.3-1-.6-1.4-1-.4-.4-.8-.9-1-1.4-.3-.5-.4-1.1-.5-1.7-.1-.6-.2-1.2-.2-1.9V7.5c0-.6.1-1.3.2-1.9.1-.5.3-1.1.6-1.6s.6-1 1-1.4c.4-.4.9-.7 1.4-1 .5-.3 1.1-.4 1.7-.5C6.3 1 6.9.9 7.6.9H112.2c.6 0 1.2.1 1.9.2.6.1 1.1.3 1.7.5 1 .5 1.9 1.4 2.4 2.4.3.5.4 1.1.5 1.6.1.6.2 1.3.2 1.9v24.9c0 .6-.1 1.2-.2 1.9-.1.6-.3 1.1-.5 1.7-.3.5-.6 1-1 1.4-.4.4-.9.8-1.4 1-.5.3-1.1.5-1.7.5-.6.1-1.2.2-1.9.2H8.4z"></path><g><path id="path46" d="M60.6 21.7c-2 0-3.7 1.5-3.7 3.7 0 2.1 1.7 3.7 3.7 3.7s3.7-1.6 3.7-3.7-1.7-3.7-3.7-3.7zm0 5.9c-1.1 0-2.1-.9-2.1-2.2 0-1.3 1-2.2 2.1-2.2s2.1.9 2.1 2.2c0 1.3-1 2.2-2.1 2.2zm-8.1-5.9c-2 0-3.7 1.5-3.7 3.7 0 2.1 1.7 3.7 3.7 3.7s3.7-1.6 3.7-3.7-1.7-3.7-3.7-3.7zm0 5.9c-1.1 0-2.1-.9-2.1-2.2 0-1.3 1-2.2 2.1-2.2s2.1.9 2.1 2.2c0 1.3-1 2.2-2.1 2.2zm-9.6-4.7v1.6h3.8c-.1.9-.4 1.5-.9 2s-1.4 1.1-2.9 1.1c-2.3 0-4.1-1.8-4.1-4.1s1.8-4.1 4.1-4.1c1.3 0 2.2.5 2.8 1.1l1.1-1.1c-.9-.9-2.2-1.6-3.9-1.6-3.2 0-5.8 2.5-5.8 5.7s2.7 5.7 5.8 5.7c1.7 0 3-.6 4-1.6s1.4-2.5 1.4-3.6c0-.4 0-.7-.1-1h-5.3zm39.4 1.2c-.3-.8-1.2-2.3-3.2-2.3-1.9 0-3.5 1.5-3.5 3.7 0 2 1.6 3.7 3.7 3.7 1.7 0 2.7-1 3.1-1.6l-1.3-.8c-.4.6-1 1-1.8 1s-1.4-.4-1.8-1.1l5-2-.2-.6zm-5.1 1.2c0-1.4 1.1-2.1 1.9-2.1.6 0 1.2.3 1.4.8l-3.3 1.3zm-4 3.5h1.6V18.1h-1.6v10.7zm-2.7-6.2c-.4-.4-1.1-.8-2-.8-1.9 0-3.5 1.6-3.5 3.7s1.7 3.6 3.5 3.6c.9 0 1.6-.4 1.9-.8h.1v.5c0 1.4-.8 2.2-2 2.2-1 0-1.6-.7-1.9-1.3l-1.4.6c.4 1 1.5 2.2 3.3 2.2 1.9 0 3.5-1.1 3.5-3.8V22h-1.5v.6zm-1.8 5c-1.1 0-2.1-.9-2.1-2.2 0-1.3.9-2.2 2.1-2.2 1.1 0 2 .9 2 2.2 0 1.3-.9 2.2-2 2.2zm21.2-9.5H86v10.8h1.6v-4.1h2.3c1.8 0 3.6-1.3 3.6-3.3 0-2.1-1.8-3.4-3.6-3.4zm.1 5.2h-2.3v-3.7H90c1.2 0 1.9 1 1.9 1.8 0 .9-.7 1.9-1.9 1.9zm10-1.6c-1.2 0-2.4.5-2.9 1.6l1.4.6c.3-.6.9-.8 1.5-.8.8 0 1.7.5 1.7 1.4v.1c-.3-.2-.9-.4-1.7-.4-1.6 0-3.1.8-3.1 2.4 0 1.4 1.3 2.4 2.7 2.4 1.1 0 1.7-.5 2.1-1.1h.1v.8h1.6v-4.1c-.1-1.8-1.5-2.9-3.4-2.9zm-.2 5.9c-.5 0-1.3-.3-1.3-.9 0-.8.9-1.2 1.7-1.2.7 0 1 .2 1.5.4-.1 1-1 1.7-1.9 1.7zM109 22l-1.9 4.7h-.1l-1.9-4.7h-1.8l2.9 6.5-1.7 3.6h1.7l4.5-10.1H109zm-14.6 6.8H96V18.1h-1.6v10.7z" class="st1"></path><g id="g48"><linearGradient id="path64_00000034774710040526737200000003497721616972470150_" gradientUnits="userSpaceOnUse" x1="29.119" y1="-143.219" x2="14.545" y2="-128.646" gradientTransform="matrix(1.0024 0 0 -.9907 -8.922 -111.937)"><stop offset="0" style="stop-color:#00a0ff;"></stop><stop offset=".007" style="stop-color:#00a1ff;"></stop><stop offset=".26" style="stop-color:#00beff;"></stop><stop offset=".512" style="stop-color:#00d2ff;"></stop><stop offset=".76" style="stop-color:#00dfff;"></stop><stop offset="1" style="stop-color:#00e3ff;"></stop></linearGradient><path id="path64" d="M10.4 9.5c-.3.3-.4.7-.4 1.2v19c0 .5.1.9.4 1.2l.1.1 10.8-10.7V20L10.4 9.5z" style="fill:url(#path64_00000034774710040526737200000003497721616972470150_)"></path></g><g id="g66"><linearGradient id="path78_00000183935757029055499530000011422543414374155658_" gradientUnits="userSpaceOnUse" x1="39.57" y1="-133.414" x2="18.558" y2="-133.414" gradientTransform="matrix(1.0024 0 0 -.9907 -8.922 -111.937)"><stop offset="0" style="stop-color:#ffe000;"></stop><stop offset=".409" style="stop-color:#ffbd00;"></stop><stop offset=".775" style="stop-color:orange;"></stop><stop offset="1" style="stop-color:#ff9c00;"></stop></linearGradient><path id="path78" d="m24.8 23.9-3.6-3.6V20l3.6-3.6h.1l4.3 2.4c1.2.7 1.2 1.8 0 2.5l-4.4 2.6z" style="fill:url(#path78_00000183935757029055499530000011422543414374155658_)"></path></g><g id="g80"><linearGradient id="path88_00000001648578495057745390000001676023686686193074_" gradientUnits="userSpaceOnUse" x1="24.502" y1="-138.667" x2="4.739" y2="-118.904" gradientTransform="matrix(1.0024 0 0 -.9907 -8.922 -111.937)"><stop offset="0" style="stop-color:#ff3a44;"></stop><stop offset="1" style="stop-color:#c31162;"></stop></linearGradient><path id="path88" d="m24.9 23.9-3.7-3.6L10.4 31c.4.4 1.1.5 1.8.1l12.7-7.2" style="fill:url(#path88_00000001648578495057745390000001676023686686193074_)"></path></g><g id="g90"><linearGradient id="path104_00000156576165621196468300000004243087164845919620_" gradientUnits="userSpaceOnUse" x1="9.283" y1="-143.383" x2="18.107" y2="-134.559" gradientTransform="matrix(1.0024 0 0 -.9907 -8.922 -111.937)"><stop offset="0" style="stop-color:#32a071;"></stop><stop offset=".069" style="stop-color:#2da771;"></stop><stop offset=".476" style="stop-color:#15cf74;"></stop><stop offset=".801" style="stop-color:#06e775;"></stop><stop offset="1" style="stop-color:#00f076;"></stop></linearGradient><path id="path104" d="M24.9 16.6 12.2 9.5c-.7-.4-1.4-.4-1.8.1l10.9 10.7 3.6-3.7z" style="fill:url(#path104_00000156576165621196468300000004243087164845919620_)"></path></g><path d="M42.4 11c0 1.7-1.2 2.8-3 2.8h-1.8V8.2h1.8c1.8 0 3 1.1 3 2.8zm-3 2.1c1.3 0 2-.8 2-2 0-1.3-.7-2.1-2-2.1h-.9v4.1h.9zM45.2 13.9c-1.3 0-2.2-.9-2.2-2.3s1-2.3 2.2-2.3c1.3 0 2.2.9 2.2 2.3.1 1.4-.9 2.3-2.2 2.3zm0-.8c.7 0 1.4-.5 1.4-1.5s-.6-1.5-1.3-1.5c-.7 0-1.3.5-1.3 1.5-.1 1 .5 1.5 1.2 1.5zM47.9 9.4h.9l.9 3.5.9-3.5h1l.9 3.5.9-3.5h.9l-1.4 4.4h-1l-.9-3.3-.9 3.3h-1l-1.2-4.4zM58.1 11.3c0-.8-.4-1.2-1.1-1.2-.7 0-1.1.4-1.1 1.2v2.5H55V9.4h.9v.5c.3-.4.8-.6 1.3-.6 1 0 1.8.6 1.8 1.9v2.6h-.9v-2.5zM60.2 7.9h.9v5.9h-.9V7.9zM64.2 13.9c-1.2 0-2.2-.9-2.2-2.3s1-2.3 2.2-2.3c1.3 0 2.2.9 2.2 2.3.1 1.4-.9 2.3-2.2 2.3zm0-.8c.7 0 1.4-.5 1.4-1.5s-.6-1.5-1.3-1.5c-.7 0-1.3.5-1.3 1.5-.1 1 .5 1.5 1.2 1.5zM69.2 9.3c.7 0 1.3.4 1.5.7v-.6h.9v4.4h-.9v-.7c-.3.4-.8.7-1.5.7-1.1 0-2.1-.9-2.1-2.3s.9-2.2 2.1-2.2zm.2.8c-.7 0-1.3.5-1.3 1.5s.7 1.5 1.3 1.5c.7 0 1.3-.5 1.3-1.5s-.6-1.5-1.3-1.5zM74.6 9.3c.6 0 1.2.3 1.5.7V7.9h.9v5.9h-.9v-.7c-.3.4-.8.7-1.5.7-1.2 0-2.1-.9-2.1-2.3s.9-2.2 2.1-2.2zm.2.8c-.7 0-1.3.5-1.3 1.5s.7 1.5 1.3 1.5c.7 0 1.3-.5 1.3-1.5s-.6-1.5-1.3-1.5zM82.2 13.9c-1.2 0-2.2-.9-2.2-2.3s1-2.3 2.2-2.3c1.3 0 2.2.9 2.2 2.3.1 1.4-.9 2.3-2.2 2.3zm0-.8c.7 0 1.4-.5 1.4-1.5s-.6-1.5-1.3-1.5c-.7 0-1.3.5-1.3 1.5s.5 1.5 1.2 1.5zM88.6 11.3c0-.8-.4-1.2-1.1-1.2-.7 0-1.1.4-1.1 1.2v2.5h-.9V9.4h.9v.5c.3-.4.8-.6 1.3-.6 1 0 1.8.6 1.8 1.9v2.6h-.9v-2.5zM92.8 10.1h-.5v-.7h.5V8.3h.9v1.1h1.1v.7h-1.1v2.4c0 .3.1.5.5.5h.6v.8h-.7c-.8 0-1.3-.3-1.3-1.2v-2.5zM95.7 7.9h.9v2c.3-.4.8-.6 1.4-.6 1 0 1.8.6 1.8 1.9v2.6h-.9v-2.5c0-.8-.4-1.2-1.1-1.2-.7 0-1.1.4-1.1 1.2v2.5h-.9V7.9zM102.8 13.9c-1.3 0-2.2-.9-2.2-2.3s.9-2.3 2.2-2.3c1.3 0 2.1.9 2.1 2.2v.4h-3.4c.1.7.6 1.2 1.3 1.2.6 0 .9-.3 1-.6h1c-.3.8-1 1.4-2 1.4zm-1.3-2.7h2.4c0-.7-.6-1.1-1.2-1.1s-1.1.4-1.2 1.1z" class="st1"></path></g></svg>