<svg id="Health_care" data-name="Health care" xmlns="http://www.w3.org/2000/svg" width="33.723" height="33.723" viewBox="0 0 33.723 33.723">
  <rect id="Rectangle_24542" data-name="Rectangle 24542" width="33.723" height="33.723" fill="#fff" opacity="0"/>
  <g id="healthcare_1_" data-name="healthcare (1)" transform="translate(0.025 0.193)">
    <g id="Group_24109" data-name="Group 24109" transform="translate(4.165 5.683)">
      <path id="Path_25291" data-name="Path 25291" d="M77.257,116.71c.4.326.6.5.8.511.2-.008.4-.185.8-.511l10.494-10.745a9,9,0,0,0,0-12.079c-2.82-3.018-7.451-2.347-10.389.543l-.552.543c-.32.314-.381.314-.708-.008l-.543-.535c-2.932-2.892-7.569-3.561-10.389-.543a9,9,0,0,0,0,12.079l1.259,1.29Z" transform="translate(-64.433 -91.918)" fill="#fd8087" fill-rule="evenodd"/>
    </g>
    <g id="Group_24110" data-name="Group 24110" transform="translate(13.936 5.684)">
      <path id="Path_25292" data-name="Path 25292" d="M221.629,93.386a13.306,13.306,0,0,1,2.386,7.585c0,.3-.011.606-.032.9a13.329,13.329,0,0,1-2.4,6.752,14.467,14.467,0,0,1-2.1,2.393,15.113,15.113,0,0,1-2.811,2.029q-.526.294-1.08.553l3.052,3.125c.4.326.6.5.8.511.2-.008.4-.185.8-.511l3.21-3.288,7.283-7.457a9.028,9.028,0,0,0,1.544-9.747,8.523,8.523,0,0,0-1.544-2.332,6.268,6.268,0,0,0-1.4-1.124,6.685,6.685,0,0,0-5.391-.5A8.676,8.676,0,0,0,221.629,93.386Z" transform="translate(-215.587 -91.934)" fill="#fe636e" fill-rule="evenodd"/>
    </g>
    <g id="Group_24111" data-name="Group 24111" transform="translate(8.938 12.078)">
      <path id="Path_25293" data-name="Path 25293" d="M150.2,197.331h-.009a.5.5,0,0,1-.429-.259l-2.582-4.707-1.922,3.36a.5.5,0,0,1-.856.018l-1.194-1.9-.9,1.5a.5.5,0,0,1-.428.242h-3.121a.5.5,0,0,1,0-1H141.6l1.174-1.951a.5.5,0,0,1,.423-.242h0a.5.5,0,0,1,.423.234l1.183,1.881,1.952-3.412a.5.5,0,0,1,.433-.251h0a.5.5,0,0,1,.433.259l2.59,4.723,1.307-2.195a.5.5,0,0,1,.429-.244h4.162a.5.5,0,0,1,0,1h-3.879l-1.608,2.7A.5.5,0,0,1,150.2,197.331Z" transform="translate(-138.257 -190.843)" fill="#f8f2f0"/>
    </g>
    <g id="Group_24112" data-name="Group 24112" transform="translate(22.254 0)">
      <path id="Path_25294" data-name="Path 25294" d="M349.672,14.85a5.425,5.425,0,1,0-5.423-5.426A5.434,5.434,0,0,0,349.672,14.85Z" transform="translate(-344.249 -4)" fill="#f8f2f0" fill-rule="evenodd"/>
    </g>
    <g id="Group_24113" data-name="Group 24113" transform="translate(25.489 0)">
      <path id="Path_25295" data-name="Path 25295" d="M394.539,4.358a5.425,5.425,0,0,1,3.235,4.965c0,.034,0,.069,0,.1a5.371,5.371,0,0,1-.339,1.793,5.437,5.437,0,0,1-3.138,3.172,5.424,5.424,0,1,0,.244-10.031Z" transform="translate(-394.295 -4)" fill="#d6dcea" fill-rule="evenodd"/>
    </g>
    <path id="Path_25296" data-name="Path 25296" d="M394.342,51.618h-1.473V50.144a.5.5,0,1,0-1,0v1.474H390.4a.5.5,0,0,0,0,1h1.473v1.474a.5.5,0,1,0,1,0V52.617h1.473a.5.5,0,0,0,0-1Z" transform="translate(-364.692 -46.693)" fill="#fd8087"/>
    <g id="Group_24114" data-name="Group 24114" transform="translate(3.513 20.707)">
      <path id="Path_25297" data-name="Path 25297" d="M55.458,325.843l-1.112,3.608,1.112,3.824,5.122,1.395,4.155,1.13c2.424.754,3.494.324,5.724-.392l8.171-2.622c2.346-.752,2-3.98-1.438-2.877l-4.568.894-.746.147a4.94,4.94,0,0,1-2.378.131l-3.65-.667-.663-.122a1.162,1.162,0,0,1,.392-2.284c.883.112,2.068.272,3.081.377l.061.006c1.956.2,2.74-1.263,2.041-2.4a2.563,2.563,0,0,0-1.461-1.046l-2.752-.5c-1.784-.328-3.052.08-5.821.535l-1.559.257Z" transform="translate(-54.346 -324.322)" fill="#fed1a3" fill-rule="evenodd"/>
    </g>
    <g id="Group_24115" data-name="Group 24115" transform="translate(0 21.382)">
      <path id="Path_25298" data-name="Path 25298" d="M0,334.963v8.792a.235.235,0,0,0,.257.2H4.366a.235.235,0,0,0,.259-.2v-8.792a.235.235,0,0,0-.259-.2H.257a.235.235,0,0,0-.257.2Z" transform="translate(0 -334.763)" fill="#99e6fc" fill-rule="evenodd"/>
    </g>
    <g id="Group_24116" data-name="Group 24116" transform="translate(0 29.024)">
      <path id="Path_25299" data-name="Path 25299" d="M0,452.975v1.351a.235.235,0,0,0,.257.2H4.366a.235.235,0,0,0,.259-.2v-1.351a.237.237,0,0,1-.259.2H.257a.236.236,0,0,1-.257-.2Z" transform="translate(0 -452.975)" fill="#62dbfb" fill-rule="evenodd"/>
    </g>
    <g id="Group_24117" data-name="Group 24117" transform="translate(4.625 26.757)">
      <path id="Path_25300" data-name="Path 25300" d="M71.548,420.171v.636L76.67,422.2l4.155,1.13c2.424.754,3.494.324,5.724-.392l8.171-2.622c1.323-.423,1.788-1.635,1.327-2.414a2.185,2.185,0,0,1-1.327,1.063l-8.171,2.622c-2.23.714-3.3,1.147-5.724.392l-4.155-1.13-5.122-1.4Z" transform="translate(-71.548 -417.904)" fill="#ffbc85" fill-rule="evenodd"/>
    </g>
    <g id="Group_24118" data-name="Group 24118" transform="translate(13.467 22.54)">
      <path id="Path_25301" data-name="Path 25301" d="M209.6,353.182A1.156,1.156,0,0,0,208.532,355a1.063,1.063,0,0,1,1.068-.471c.883.112,2.068.272,3.081.377l.061.006c1.864.189,2.664-1.128,2.131-2.235a1.567,1.567,0,0,1-.731.686,2.618,2.618,0,0,1-1.4.2l-.061-.006C211.669,353.455,210.484,353.295,209.6,353.182Z" transform="translate(-208.322 -352.681)" fill="#ffbc85" fill-rule="evenodd"/>
    </g>
  </g>
</svg>
