<svg id="Hospital_care" data-name="Hospital care" xmlns="http://www.w3.org/2000/svg" width="34" height="34" viewBox="0 0 34 34">
  <rect id="Rectangle_24542" data-name="Rectangle 24542" width="34" height="34" fill="#fff" opacity="0"/>
  <g id="hospital" transform="translate(0.513 1.945)">
    <path id="Path_25314" data-name="Path 25314" d="M69.827,55.359V67.27a4.193,4.193,0,0,1-4.185,4.191H46.633a4.193,4.193,0,0,1-4.185-4.191V55.359a.963.963,0,0,1,.288-.687L53.967,43.618a3.107,3.107,0,0,1,4.34,0L69.539,54.672A.963.963,0,0,1,69.827,55.359Z" transform="translate(-39.649 -41.351)" fill="#efefef"/>
    <path id="Path_25315" data-name="Path 25315" d="M270.076,55.359V67.27a4.253,4.253,0,0,1-4.3,4.191H256V42.735a3.22,3.22,0,0,1,2.231.883L269.78,54.672A.95.95,0,0,1,270.076,55.359Z" transform="translate(-239.899 -41.351)" fill="#e5e5e9"/>
    <path id="Path_25316" data-name="Path 25316" d="M32.7,38.142a.951.951,0,0,1-1.366.012l-14.019-14.1a1.164,1.164,0,0,0-1.651,0L1.643,38.154a.951.951,0,0,1-1.366-.012,1.006,1.006,0,0,1,.012-1.4l14.019-14.1a3.074,3.074,0,0,1,4.36,0l14.019,14.1A1.006,1.006,0,0,1,32.7,38.142Z" transform="translate(0 -21.735)" fill="#6e6e6e"/>
    <path id="Path_25317" data-name="Path 25317" d="M166.4,202.925v3.946a.659.659,0,0,1-.659.659h-3.511v3.511a.659.659,0,0,1-.659.659h-3.946a.659.659,0,0,1-.659-.659V207.53h-3.511a.659.659,0,0,1-.659-.659v-3.946a.659.659,0,0,1,.659-.659h3.511v-3.511a.659.659,0,0,1,.659-.659h3.946a.659.659,0,0,1,.659.659v3.511h3.511A.659.659,0,0,1,166.4,202.925Z" transform="translate(-143.114 -186.99)" fill="#ff6769"/>
    <path id="Path_25318" data-name="Path 25318" d="M262.8,202.924v3.946a.659.659,0,0,1-.659.659h-3.511v3.511a.659.659,0,0,1-.659.659H256V198.095h1.974a.659.659,0,0,1,.659.659v3.511h3.511A.659.659,0,0,1,262.8,202.924Z" transform="translate(-239.61 -186.99)" fill="#ff0c6c"/>
    <path id="Path_25319" data-name="Path 25319" d="M272.591,38.142a.989.989,0,0,1-1.4.012l-14.348-14.1a1.2,1.2,0,0,0-.845-.343V21.735a3.175,3.175,0,0,1,2.231.907l14.347,14.1a.99.99,0,0,1,.013,1.4Z" transform="translate(-239.899 -21.735)" fill="#5a5a5a"/>
  </g>
</svg>
