<svg xmlns="http://www.w3.org/2000/svg" viewBox="0 0 66 66.02" class="h-8 w-8 xl:h-12 xl:w-12 2xl:h-16 2xl:w-16" data-v-38162434=""><g fill="#ffffff" data-v-38162434=""><path d="M47.7 20.55a.97.97 0 1 0-1.88.5 20.26 20.26 0 0 1-5.2 19.59 20.17 20.17 0 1 1 3.6-23.67.97.97 0 0 0 1.71-.9 22.14 22.14 0 1 0 1.76 4.48Z" data-name="Path 285" data-v-38162434=""></path> <path d="M64.58 57.67 53.55 46.64a1.73 1.73 0 0 0-2.44 0l-1.56 1.56-3.9-3.9a26.35 26.35 0 1 0-1.36 1.37l3.9 3.9-1.56 1.55a1.73 1.73 0 0 0 0 2.44l5.51 5.52a.97.97 0 1 0 1.37-1.37l-5.37-5.37 2.1-2.1 2.1-2.1 10.86 10.9a2.94 2.94 0 0 1 0 4.14l-.04.05a2.93 2.93 0 0 1-4.15 0l-3.27-3.28a.97.97 0 0 0-1.37 1.37l3.27 3.28a4.87 4.87 0 0 0 6.89 0l.04-.05a4.87 4.87 0 0 0 0-6.88ZM9.08 43.64a24.42 24.42 0 1 1 17.26 7.15 24.46 24.46 0 0 1-17.27-7.15Z" data-name="Path 286" data-v-38162434=""></path> <path d="M20.38 27.84a6.92 6.92 0 0 0-4.42 5.18l-.53 2.76a4.27 4.27 0 0 0 4.2 5.07h13.43a4.27 4.27 0 0 0 4.2-5.02l-.48-2.74a6.91 6.91 0 0 0-4.43-5.26l-1.9-.69v-3.06h.02a6.21 6.21 0 0 0 1.85-4.41v-3.6a6.01 6.01 0 1 0-12.02 0v3.71a6 6 0 0 0 1.87 4.34v3.07Zm14.5 5.59.49 2.74a2.34 2.34 0 0 1-2.3 2.75H19.63a2.34 2.34 0 0 1-2.3-2.78l.53-2.76a4.98 4.98 0 0 1 3.17-3.72l1.97-.71a5.83 5.83 0 0 0 6.67-.04l2.01.73a4.97 4.97 0 0 1 3.2 3.79ZM22.24 16.06a4.08 4.08 0 0 1 8.09-.72 8.14 8.14 0 0 1-.83.39c-1.7.68-3.18.64-3.72.26a.97.97 0 1 0-1.1 1.59 4.1 4.1 0 0 0 2.34.61 8.78 8.78 0 0 0 3.2-.67l.17-.07v2.22a4.27 4.27 0 0 1-1.28 3.02 3.97 3.97 0 0 1-2.88 1.17 4.1 4.1 0 0 1-4-4.08v-3.72Zm3.96 9.73h.11a5.84 5.84 0 0 0 2.21-.43v2a3.89 3.89 0 0 1-4.41 0v-1.99a5.93 5.93 0 0 0 2.09.43Z" data-name="Path 287" data-v-38162434=""></path></g></svg>