<svg id="Wellbeing_and_Prevention" data-name="Wellbeing and Prevention" xmlns="http://www.w3.org/2000/svg" width="31.85" height="33.617" viewBox="0 0 31.85 33.617">
  <g id="Group_24129" data-name="Group 24129" transform="translate(0 0)">
    <path id="Path_25302" data-name="Path 25302" d="M286.616,444.855c-.019,0-1.811-1.63-1.934-1.507s-6.227,0-6.227,0l-1.895,1.492v1.371a.63.63,0,0,0,.631.63H286a.63.63,0,0,0,.631-.63v-1.358Z" transform="translate(-258.365 -413.224)" fill="#62dbfb"/>
    <ellipse id="Ellipse_1461" data-name="Ellipse 1461" cx="11.108" cy="10.712" rx="11.108" ry="10.712" transform="translate(4.773 0)" fill="#f9f7f8"/>
    <path id="Path_25303" data-name="Path 25303" d="M143.682,95.037l5.58-6.117a3.915,3.915,0,0,0-.126-5.41l-.013-.013a3.925,3.925,0,0,0-5.546,0l-.7.7-.715-.711a3.92,3.92,0,0,0-5.646,5.435l5.662,6.12A1.021,1.021,0,0,0,143.682,95.037Z" transform="translate(-127.015 -76.682)" fill="#fd8087"/>
    <g id="Group_24123" data-name="Group 24123" transform="translate(8.357 5.663)">
      <path id="Path_25304" data-name="Path 25304" d="M139.4,88.929a3.918,3.918,0,0,1,1.438-6.3,3.918,3.918,0,0,0-4.321,6.3l5.662,6.121a1.021,1.021,0,0,0,1.5-.005l.682-.748Z" transform="translate(-135.475 -82.352)" fill="#fe646f"/>
    </g>
    <g id="XMLID_171_" transform="translate(0 8.754)">
      <g id="Group_24124" data-name="Group 24124" transform="translate(0 0)">
        <path id="Path_25305" data-name="Path 25305" d="M26.286,152.413l0,.017a1.072,1.072,0,0,0-.191-.017h-7.8a1.08,1.08,0,0,0-.192.017l0-.017v-3.583l-3.921-4.781a2.627,2.627,0,0,1-.6-1.668v-8.512a1.6,1.6,0,0,1,3.206-.085L17.1,139.7l.011.014a1.321,1.321,0,0,1,1.635.031l6.871,5.623a1.832,1.832,0,0,1,.672,1.419Z" transform="translate(-13.574 -132.265)" fill="#ffcebf"/>
      </g>
      <path id="Path_25306" data-name="Path 25306" d="M19.6,148.712a3.14,3.14,0,0,0-.712-1.991l-3.209-3.913a2.627,2.627,0,0,1-.6-1.668v-8.512a1.607,1.607,0,0,1,.037-.341,1.6,1.6,0,0,0-1.544,1.6V142.4a2.627,2.627,0,0,0,.6,1.668l3.921,4.782v3.583l0,.017a1.081,1.081,0,0,1,.192-.017H19.6v-3.721Z" transform="translate(-13.575 -132.286)" fill="#ffb09e"/>
      <path id="Path_25307" data-name="Path 25307" d="M69.426,450.881,67.585,451.9v1.391a.6.6,0,0,0,.595.594h8.884a.6.6,0,0,0,.595-.594V451.9l-1.044-1.015Z" transform="translate(-64.007 -429.02)" fill="#62dbfb"/>
      <g id="Group_24125" data-name="Group 24125" transform="translate(19.136 0)">
        <path id="Path_25308" data-name="Path 25308" d="M290.76,152.413l0,.017a1.072,1.072,0,0,1,.191-.017h7.8a1.078,1.078,0,0,1,.192.017l0-.017v-3.583l3.921-4.781a2.627,2.627,0,0,0,.6-1.668v-8.512a1.6,1.6,0,0,0-3.207-.085l-.316,5.921-.011.014a1.321,1.321,0,0,0-1.635.031l-6.871,5.623a1.832,1.832,0,0,0-.672,1.419Z" transform="translate(-290.76 -132.265)" fill="#ffcebf"/>
      </g>
      <path id="Path_25309" data-name="Path 25309" d="M301.271,139.272a.659.659,0,0,0,.26-.49l.233-4.364a1.6,1.6,0,0,1,1.394-1.5,1.618,1.618,0,0,0-.155-.18,1.605,1.605,0,0,0-2.737,1.048l-.316,5.921-.011.014a1.321,1.321,0,0,0-1.635.031l-6.871,5.623a1.832,1.832,0,0,0-.672,1.419v5.622l0,.017a1.074,1.074,0,0,1,.192-.017h1.3v-4.987a1.832,1.832,0,0,1,.672-1.419l6.871-5.623Z" transform="translate(-271.625 -132.265)" fill="#ffb09e"/>
      <g id="Group_24128" data-name="Group 24128" transform="translate(2.513 7.847)">
        <g id="Group_24126" data-name="Group 24126" transform="translate(0)">
          <path id="Path_25310" data-name="Path 25310" d="M55.5,245.114a.5.5,0,0,1-.351-.145l-3.112-3.11a1.816,1.816,0,0,1,0-2.569.5.5,0,0,1,.7.7.823.823,0,0,0,0,1.165l3.112,3.11a.5.5,0,0,1-.351.847Z" transform="translate(-51.502 -239.144)" fill="#ffb09e"/>
        </g>
        <g id="XMLID_460_" transform="translate(1.065 12.015)">
          <g id="Group_24127" data-name="Group 24127">
            <path id="Path_25311" data-name="Path 25311" d="M286.349,421.8v1.881H276.274V421.8a1.134,1.134,0,0,1,.943-1.117,1.072,1.072,0,0,1,.191-.017h7.8a1.079,1.079,0,0,1,.192.017A1.134,1.134,0,0,1,286.349,421.8Z" transform="translate(-261.676 -420.665)" fill="#99e6fc"/>
            <path id="Path_25312" data-name="Path 25312" d="M77.659,421.8v1.881H67.584V421.8a1.134,1.134,0,0,1,.943-1.117,1.079,1.079,0,0,1,.192-.017h7.8a1.072,1.072,0,0,1,.191.017A1.134,1.134,0,0,1,77.659,421.8Z" transform="translate(-67.584 -420.665)" fill="#99e6fc"/>
          </g>
        </g>
      </g>
    </g>
  </g>
  <path id="Path_25313" data-name="Path 25313" d="M381.1,238.952a1.8,1.8,0,0,0-.533-1.285,1.784,1.784,0,0,0-.19-.165.5.5,0,0,0-.243-.1l-.026.479-.011.014a1.307,1.307,0,0,0-.462-.224.5.5,0,0,0,.145.621.783.783,0,0,1,.083.072.823.823,0,0,1,0,1.165l-3.112,3.11a.5.5,0,0,0,.7.7l3.112-3.11A1.8,1.8,0,0,0,381.1,238.952Z" transform="translate(-351.781 -221.24)" fill="#ffb09e"/>
</svg>
